<svg width="240" height="124" viewBox="0 0 240 124" fill="none" xmlns="http://www.w3.org/2000/svg">
<path d="M188.122 0.0051645H74.1197C71.631 0.0051645 69.3281 1.33216 68.0837 3.49046L0.27795 120.927C-0.73924 122.693 1.23318 124.665 2.99906 123.648L86.579 75.4063C87.4619 74.8951 88.4481 75.8865 87.9421 76.7643L75.1627 98.8997C74.3985 100.227 75.3538 101.889 76.8873 101.889H188.964C217.389 101.889 240.376 78.6076 239.901 50.0746C239.436 22.1407 216.062 0 188.128 0L188.122 0.0051645ZM121.06 62.2706C114.807 62.2706 109.737 57.2001 109.737 50.9473C109.737 44.6944 114.807 39.6291 121.06 39.6291C127.313 39.6291 132.378 44.6995 132.378 50.9473C132.378 57.195 127.308 62.2706 121.06 62.2706V62.2706ZM155.01 62.2706C148.757 62.2706 143.686 57.2001 143.686 50.9473C143.686 44.6944 148.757 39.6291 155.01 39.6291C161.262 39.6291 166.328 44.6995 166.328 50.9473C166.328 57.195 161.257 62.2706 155.01 62.2706V62.2706ZM188.969 62.2603C182.716 62.2603 177.646 57.1898 177.646 50.9421C177.646 44.6944 182.716 39.6188 188.969 39.6188C195.222 39.6188 200.287 44.6892 200.287 50.9421C200.287 57.195 195.217 62.2603 188.969 62.2603Z" fill="url(#paint0_linear_209_586)"/>
<defs>
<linearGradient id="paint0_linear_209_586" x1="4.83723" y1="96.7105" x2="262.641" y2="6.28386" gradientUnits="userSpaceOnUse">
<stop stop-color="#18AFF2"/>
<stop offset="0.3" stop-color="#5E53D8"/>
<stop offset="0.7" stop-color="#E74296"/>
<stop offset="1" stop-color="#FD7642"/>
</linearGradient>
</defs>
</svg>
