<svg width="166" height="166" viewBox="0 0 166 166" fill="none" xmlns="http://www.w3.org/2000/svg">
<g filter="url(#filter0_d_140_7976)">
<rect x="28" y="10" width="110.473" height="110.474" rx="24.5495" fill="white" shape-rendering="crispEdges"/>
<path d="M60.587 88.1205L60.5893 88.1225C60.6007 88.1327 60.6069 88.1418 60.6097 88.1469L60.6097 88.1471L60.61 88.1568L60.7788 93.6183C60.7788 93.6186 60.7788 93.6188 60.7788 93.6191C60.8032 94.4132 61.0222 95.1892 61.4167 95.8789C61.8112 96.5688 62.3692 97.1513 63.0416 97.5751C63.7139 97.9989 64.4801 98.251 65.2727 98.3094C66.0654 98.3677 66.8602 98.2305 67.5873 97.9097L73.6781 95.2248L73.6781 95.2249L73.6876 95.2206C73.6887 95.2204 73.6907 95.2201 73.6936 95.2199C73.7025 95.2193 73.7155 95.2199 73.7304 95.2236C76.7337 96.0454 79.9196 96.4872 83.2367 96.4872C101.758 96.4872 116.321 82.8336 116.321 64.3235C116.321 45.8142 101.759 32.1521 83.2367 32.1521C64.7156 32.1521 50.1523 45.8057 50.1523 64.3158C50.1523 73.9431 54.11 82.3261 60.587 88.1205Z" stroke="#E4EBFE" stroke-width="4.79495"/>
<path d="M83 34C65.5392 34 52 46.7949 52 64.0692C52 73.1054 55.7045 80.9172 61.734 86.3111C62.2377 86.7606 62.5478 87.396 62.5633 88.078L62.7338 93.5959C62.7462 94.0019 62.8581 94.3986 63.0598 94.7512C63.2614 95.1038 63.5466 95.4015 63.8902 95.618C64.2339 95.8346 64.6254 95.9635 65.0305 95.9933C65.4356 96.0231 65.8419 95.953 66.2135 95.7891L72.367 93.0766C72.8863 92.8441 73.4753 92.8054 74.0255 92.9526C76.8543 93.7276 79.8613 94.1461 83 94.1461C100.461 94.1461 114 81.3512 114 64.0769C114 46.8027 100.461 34 83 34Z" fill="url(#paint0_radial_140_7976)"/>
<path d="M64.3845 72.8652L73.4907 58.4196C73.8333 57.8757 74.2849 57.4088 74.817 57.0482C75.3492 56.6877 75.9503 56.4414 76.5824 56.3249C77.2145 56.2084 77.8639 56.2242 78.4897 56.3713C79.1154 56.5184 79.7038 56.7936 80.2177 57.1796L87.464 62.6122C87.7875 62.8544 88.1811 62.9846 88.5852 62.9832C88.9893 62.9818 89.3819 62.8489 89.7037 62.6045L99.4842 55.1802C100.786 54.1882 102.491 55.7537 101.623 57.1409L92.5092 71.5787C92.1667 72.1226 91.7151 72.5895 91.1829 72.9501C90.6508 73.3106 90.0497 73.5569 89.4176 73.6734C88.7855 73.7899 88.1361 73.7741 87.5103 73.627C86.8846 73.4799 86.2962 73.2047 85.7822 72.8187L78.536 67.3861C78.2125 67.1439 77.8189 67.0137 77.4148 67.0151C77.0107 67.0165 76.6181 67.1494 76.2962 67.3938L66.5157 74.8181C65.2137 75.8101 63.5087 74.2524 64.3845 72.8652Z" fill="white"/>
<rect x="28.7672" y="10.7672" width="108.938" height="108.94" rx="23.7823" stroke="#E9F0FF" stroke-width="1.53434" shape-rendering="crispEdges"/>
</g>
<defs>
<filter id="filter0_d_140_7976" x="0.945454" y="0.981817" width="164.582" height="164.584" filterUnits="userSpaceOnUse" color-interpolation-filters="sRGB">
<feFlood flood-opacity="0" result="BackgroundImageFix"/>
<feColorMatrix in="SourceAlpha" type="matrix" values="0 0 0 0 0 0 0 0 0 0 0 0 0 0 0 0 0 0 127 0" result="hardAlpha"/>
<feOffset dy="18.0364"/>
<feGaussianBlur stdDeviation="13.5273"/>
<feComposite in2="hardAlpha" operator="out"/>
<feColorMatrix type="matrix" values="0 0 0 0 0.250588 0 0 0 0 0.235294 0 0 0 0 1 0 0 0 0.32 0"/>
<feBlend mode="normal" in2="BackgroundImageFix" result="effect1_dropShadow_140_7976"/>
<feBlend mode="normal" in="SourceGraphic" in2="effect1_dropShadow_140_7976" result="shape"/>
</filter>
<radialGradient id="paint0_radial_140_7976" cx="0" cy="0" r="1" gradientUnits="userSpaceOnUse" gradientTransform="translate(62.385 95.9983) scale(68.2 68.1981)">
<stop stop-color="#0099FF"/>
<stop offset="0.6" stop-color="#A033FF"/>
<stop offset="0.9" stop-color="#FF5280"/>
<stop offset="1" stop-color="#FF7061"/>
</radialGradient>
</defs>
</svg>
