<svg width="17" height="16" viewBox="0 0 17 16" fill="none" xmlns="http://www.w3.org/2000/svg">
<path fill-rule="evenodd" clip-rule="evenodd" d="M3.66915 1.75505C3.66915 2.71184 2.94064 3.48615 1.80136 3.48615C0.706478 3.48615 -0.022037 2.71184 0.000508909 1.75505C-0.022037 0.751761 0.70646 0 1.82319 0C2.94062 0 3.64731 0.751761 3.66915 1.75505ZM0.0921051 15.9984V4.85369H3.55571V15.9977H0.0921051V15.9984Z" fill="#09005D"/>
<path fill-rule="evenodd" clip-rule="evenodd" d="M6.33232 8.41054C6.33232 7.02045 6.28652 5.83538 6.24072 4.85534H9.24919L9.40911 6.38212H9.47747C9.93332 5.67545 11.0726 4.60522 12.9185 4.60522C15.1971 4.60522 16.9063 6.10945 16.9063 9.38987V16H13.4427V9.82388C13.4427 8.38729 12.9418 7.40795 11.6884 7.40795C10.7309 7.40795 10.1616 8.06883 9.93403 8.70645C9.84244 8.93473 9.79734 9.25319 9.79734 9.57305V16H6.33372V8.41054H6.33232Z" fill="#09005D"/>
</svg>
