<svg width="52" height="52" viewBox="0 0 52 52" fill="none" xmlns="http://www.w3.org/2000/svg">
<rect width="52" height="52.0007" rx="14.5967" fill="#F3F7FF"/>
<path d="M25.9998 13.2283C18.8061 13.2283 13.228 18.4998 13.228 25.6169C13.228 29.3398 14.7543 32.5583 17.2384 34.7806C17.4459 34.9658 17.5736 35.2276 17.58 35.5086L17.6502 37.782C17.6554 37.9492 17.7015 38.1127 17.7846 38.258C17.8676 38.4032 17.9851 38.5259 18.1267 38.6151C18.2683 38.7043 18.4296 38.7574 18.5965 38.7697C18.7634 38.782 18.9308 38.7531 19.0839 38.6856L21.6191 37.568C21.833 37.4722 22.0757 37.4563 22.3024 37.5169C23.4678 37.8362 24.7066 38.0087 25.9998 38.0087C33.1935 38.0087 38.7715 32.7371 38.7715 25.6201C38.7715 18.503 33.1935 13.2283 25.9998 13.2283Z" fill="url(#paint0_radial_133_30)"/>
<path fill-rule="evenodd" clip-rule="evenodd" d="M15.3171 36.1076C12.5888 33.4723 10.9478 29.7881 10.9478 25.6168C10.9478 17.1586 17.6301 10.9475 26.0002 10.9475C34.3712 10.9475 41.0527 17.1626 41.0527 25.62C41.0527 34.0783 34.3704 40.2894 26.0002 40.2894C24.6639 40.2894 23.3717 40.1302 22.141 39.8306L20.0048 40.7723C20.0046 40.7723 20.0045 40.7724 20.0043 40.7725C19.5095 40.9906 18.9688 41.084 18.4295 41.0443C17.8901 41.0046 17.3686 40.8329 16.911 40.5445C16.4534 40.2561 16.0737 39.8597 15.8052 39.3902C15.5368 38.9208 15.3877 38.3928 15.3711 37.8524C15.3711 37.8521 15.371 37.8519 15.371 37.8516L15.3171 36.1076ZM17.6507 37.7819L17.5805 35.5086C17.5741 35.2276 17.4464 34.9658 17.2388 34.7806C14.7547 32.5583 13.2285 29.3398 13.2285 25.6168C13.2285 18.4998 18.8066 13.2282 26.0002 13.2282C33.1939 13.2282 38.772 18.503 38.772 25.62C38.772 32.7371 33.1939 38.0086 26.0002 38.0086C24.7071 38.0086 23.4682 37.8362 22.3028 37.5169C22.0761 37.4563 21.8335 37.4722 21.6195 37.568L19.0843 38.6855C18.9312 38.7531 18.7639 38.782 18.597 38.7697C18.4301 38.7574 18.2687 38.7043 18.1272 38.6151C17.9856 38.5258 17.8681 38.4032 17.785 38.2579C17.7019 38.1127 17.6558 37.9492 17.6507 37.7819Z" fill="white"/>
<path d="M18.3304 29.2408L22.0821 23.2892C22.2232 23.0651 22.4093 22.8727 22.6285 22.7242C22.8477 22.5757 23.0954 22.4742 23.3558 22.4262C23.6163 22.3782 23.8838 22.3847 24.1416 22.4453C24.3994 22.5059 24.6418 22.6193 24.8536 22.7783L27.839 25.0166C27.9722 25.1164 28.1344 25.17 28.3009 25.1694C28.4674 25.1689 28.6291 25.1141 28.7617 25.0134L32.7912 21.9546C33.3276 21.5459 34.0301 22.1908 33.6725 22.7624L29.9176 28.7108C29.7764 28.9349 29.5904 29.1273 29.3711 29.2758C29.1519 29.4244 28.9042 29.5258 28.6438 29.5738C28.3834 29.6218 28.1158 29.6153 27.858 29.5547C27.6003 29.4941 27.3578 29.3807 27.1461 29.2217L24.1607 26.9834C24.0274 26.8836 23.8653 26.83 23.6988 26.8306C23.5323 26.8311 23.3705 26.8859 23.2379 26.9866L19.2084 30.0455C18.672 30.4542 17.9696 29.8124 18.3304 29.2408Z" fill="white"/>
<defs>
<radialGradient id="paint0_radial_133_30" cx="0" cy="0" r="1" gradientUnits="userSpaceOnUse" gradientTransform="translate(17.5066 38.7718) scale(28.0979 28.0979)">
<stop stop-color="#0099FF"/>
<stop offset="0.6" stop-color="#A033FF"/>
<stop offset="0.9" stop-color="#FF5280"/>
<stop offset="1" stop-color="#FF7061"/>
</radialGradient>
</defs>
</svg>
