<svg width="52" height="52" fill="none" xmlns="http://www.w3.org/2000/svg"><rect width="52" height="52" rx="16" fill="#F3F7FF"/><g clip-path="url(#a)"><path d="m16.448 38.575 3.936-3.308.046-.017H37A2.25 2.25 0 0 0 39.25 33V17A2.25 2.25 0 0 0 37 14.75H15A2.25 2.25 0 0 0 12.75 17v19.853a2.25 2.25 0 0 0 3.698 1.722z" fill="#2E30FF" stroke="#fff" stroke-width="2.5" stroke-linecap="round" stroke-linejoin="round"/><path d="M20.827 28.056c-.389 0-.741-.067-1.056-.2a1.731 1.731 0 0 1-.736-.576 1.517 1.517 0 0 1-.28-.888h1.2c.016.23.096.41.24.544.15.133.352.2.608.2.262 0 .467-.061.616-.184a.623.623 0 0 0 .224-.496.568.568 0 0 0-.152-.408 1.017 1.017 0 0 0-.384-.248 5.26 5.26 0 0 0-.624-.208 7.49 7.49 0 0 1-.888-.312 1.647 1.647 0 0 1-.584-.472c-.16-.213-.24-.496-.24-.848 0-.33.083-.619.248-.864.166-.245.398-.432.696-.56.299-.133.64-.2 1.024-.2.576 0 1.043.141 1.4.424.363.277.563.667.6 1.168h-1.232a.623.623 0 0 0-.248-.472c-.149-.128-.349-.192-.6-.192-.218 0-.394.056-.528.168-.128.112-.192.275-.192.488 0 .15.048.275.144.376.102.096.224.176.368.24.15.059.358.128.624.208.363.107.659.213.888.32.23.107.427.267.592.48.166.213.248.493.248.84 0 .299-.077.576-.232.832a1.664 1.664 0 0 1-.68.616c-.298.15-.653.224-1.064.224zm8.715-5.64V28h-1.12v-3.632L26.926 28h-.848l-1.504-3.632V28h-1.12v-5.584h1.272l1.776 4.152 1.776-4.152h1.264zm2.716 5.64c-.39 0-.742-.067-1.056-.2a1.73 1.73 0 0 1-.736-.576 1.516 1.516 0 0 1-.28-.888h1.2c.016.23.096.41.24.544.149.133.352.2.608.2.261 0 .466-.061.616-.184a.623.623 0 0 0 .224-.496.569.569 0 0 0-.152-.408 1.019 1.019 0 0 0-.384-.248 5.273 5.273 0 0 0-.624-.208 7.477 7.477 0 0 1-.888-.312 1.646 1.646 0 0 1-.584-.472c-.16-.213-.24-.496-.24-.848 0-.33.082-.619.248-.864.165-.245.397-.432.696-.56.298-.133.64-.2 1.024-.2.576 0 1.042.141 1.4.424.362.277.562.667.6 1.168h-1.232a.624.624 0 0 0-.248-.472c-.15-.128-.35-.192-.6-.192-.219 0-.395.056-.528.168-.128.112-.192.275-.192.488 0 .15.048.275.144.376.101.096.224.176.368.24.149.059.357.128.624.208.362.107.658.213.888.32.229.107.426.267.592.48.165.213.248.493.248.84 0 .299-.078.576-.232.832a1.665 1.665 0 0 1-.68.616c-.299.15-.654.224-1.064.224z" fill="#fff"/></g><defs><clipPath id="a"><path fill="#fff" transform="translate(12 12)" d="M0 0h28v28H0z"/></clipPath></defs></svg>