<svg width="218" height="251" viewBox="0 0 218 251" fill="none" xmlns="http://www.w3.org/2000/svg">
<path d="M25.3103 187.823C29.7777 192.527 34.0047 195.559 37.3442 197.955C76.5994 226.123 123.05 217.912 132.922 215.905C147.499 212.945 175.678 207.222 196.05 183.264C226.872 147.019 222.073 89.9147 198.165 52.2189C193.792 45.3236 170.692 7.05404 123.743 0.917202C95.3282 -2.79728 62.2067 4.69378 38.2214 24.7894C-12.1261 66.9707 -8.54212 152.185 25.3103 187.823Z" fill="url(#paint0_linear_228_1543)"/>
<path d="M155.4 15.7398C157.771 15.9492 159.978 17.0378 161.587 18.7916C163.196 20.5455 164.09 22.8377 164.095 25.2178C164.181 55.3919 164.322 159.467 162.355 196.305C162.255 198.184 161.443 199.955 160.084 201.258C158.725 202.56 156.921 203.296 155.039 203.315C135.711 203.523 80.113 203.905 48.5501 201.887C45.3837 201.687 42.4126 200.288 40.242 197.974C38.0715 195.66 36.865 192.606 36.8682 189.433C36.906 157.766 37.4121 68.7038 41.7499 27.9954C42.0015 25.6324 43.0724 23.4319 44.7768 21.7759C46.4812 20.1199 48.7116 19.1127 51.0809 18.9293C72.1653 17.2866 128.145 13.3694 155.4 15.7398Z" fill="url(#paint1_linear_228_1543)"/>
<path d="M156.339 33.1253C156.719 58.9364 157.799 144.797 155.913 176.486C155.637 181.117 152.039 184.775 147.597 184.929C129.305 185.567 82.399 186.8 55.6706 183.86C50.8581 183.33 47.1822 179.158 47.0517 174.107C46.3828 147.767 44.5767 67.7974 46.4103 36.4617C46.7027 31.4629 50.5217 27.4742 55.3091 27.1511C75.1154 25.815 125.974 22.7395 148.702 24.6321C152.969 24.9889 156.274 28.657 156.339 33.1253Z" fill="url(#paint2_linear_228_1543)"/>
<path d="M112.142 20.2276C112.136 20.5709 111.998 20.8986 111.756 21.1427C111.515 21.3868 111.189 21.5285 110.846 21.5386C107.326 21.6455 97.411 21.9488 92.9789 22.1084C92.7748 22.1163 92.5716 22.0773 92.3849 21.9944C92.1981 21.9115 92.0329 21.7869 91.9019 21.6302C91.7709 21.4734 91.6776 21.2887 91.6291 21.0902C91.5806 20.8918 91.5783 20.6849 91.6223 20.4854C91.6373 20.4587 91.7505 19.363 92.8697 19.2852C95.8674 19.0769 104.911 18.515 110.889 18.8592C112.117 18.9299 112.184 20.3258 112.142 20.2276Z" fill="#1F5AA9"/>
<path d="M64.6192 138.909H139.472C141.127 138.909 142.714 138.252 143.884 137.082C145.054 135.912 145.711 134.326 145.711 132.671V40.8269C145.711 40.0007 145.547 39.1827 145.229 38.4205C144.91 37.6582 144.443 36.9668 143.855 36.3864C143.267 35.806 142.57 35.3481 141.803 35.0394C141.037 34.7307 140.217 34.5772 139.391 34.5879L64.5375 35.5727C62.8971 35.5949 61.3315 36.2621 60.1796 37.4301C59.0276 38.5981 58.382 40.1728 58.3826 41.8133V132.671C58.3828 134.325 59.0399 135.912 60.2094 137.081C61.3789 138.251 62.9651 138.909 64.6192 138.909Z" fill="#7D97F4"/>
<path d="M53.7397 147.248H150.484C151.472 147.248 152.271 146.22 152.271 144.952C152.271 143.684 151.472 142.656 150.569 142.656H53.8238C52.7534 142.656 51.9532 143.684 51.9532 144.952C51.9532 146.221 52.7533 147.248 53.7397 147.248Z" fill="#7D97F4"/>
<path d="M97.6486 147.194H150.059C151.281 147.194 152.271 146.104 152.271 144.758C152.271 143.411 151.281 142.321 150.059 142.321H97.6486C96.4272 142.321 95.4369 143.411 95.4369 144.758C95.4369 146.105 96.4233 147.194 97.6486 147.194Z" fill="url(#paint3_linear_228_1543)"/>
<path d="M93.7017 148.758C91.3886 147.799 90.2901 145.148 91.2482 142.834C92.2064 140.521 94.8583 139.423 97.1715 140.381C99.4847 141.339 100.583 143.991 99.625 146.304C98.6668 148.617 96.0149 149.716 93.7017 148.758Z" fill="url(#paint4_linear_228_1543)"/>
<path d="M108.318 154.6V171.779C108.318 172.879 107.427 173.538 106.659 173.003L93.067 163.547C92.226 162.962 92.226 161.38 93.067 160.902L106.659 153.166C107.427 152.731 108.318 153.499 108.318 154.6Z" fill="white"/>
<path d="M75.8267 156.163V165.458C75.8267 166.054 75.3551 166.41 74.9456 166.123L67.6895 161.014C67.2392 160.7 67.2392 159.835 67.6895 159.577L74.9456 155.386C75.3535 155.15 75.8267 155.566 75.8267 156.163Z" fill="white"/>
<path d="M71.1733 156.033V165.303C71.1733 165.898 70.7018 166.254 70.2962 165.967L63.0779 160.873C62.6299 160.558 62.6299 159.7 63.0779 159.44L70.2962 155.258C70.7026 155.022 71.1733 155.437 71.1733 156.033Z" fill="white"/>
<path d="M125.526 157.56V167.108C125.526 167.721 126.026 168.12 126.458 167.854L134.191 163.071C134.676 162.771 134.676 161.88 134.191 161.578L126.458 156.809C126.026 156.547 125.526 156.947 125.526 157.56Z" fill="white"/>
<path d="M130.463 157.699V167.272C130.463 167.887 130.965 168.287 131.399 168.019L139.174 163.225C139.661 162.924 139.661 162.031 139.174 161.732L131.399 156.95C130.965 156.683 130.463 157.084 130.463 157.699Z" fill="white"/>
<path d="M85.1752 9.7318C84.3735 8.81615 83.2693 8.31706 82.1469 8.34143L4.2363 10.1319C1.95699 10.1837 -7.93827e-05 12.3467 -7.93827e-05 14.9962V26.7857C-7.93827e-05 29.458 1.98136 31.6312 4.27717 31.6517L70.7567 32.2364C73.5154 34.4301 79.7709 39.8446 82.3355 42.0862C82.4139 42.1554 82.5142 42.1948 82.6188 42.1972C82.7234 42.1997 82.8254 42.1651 82.9069 42.0995C82.993 42.0262 83.0569 41.9304 83.0914 41.8228C83.126 41.7152 83.1299 41.6001 83.1026 41.4904L80.8304 32.3244L82.1752 32.3362C83.2889 32.3464 84.4018 31.8379 85.1925 30.9215C86.015 29.9586 86.4678 28.7343 86.4697 27.4679V13.2042C86.468 11.9291 86.0087 10.6969 85.1752 9.7318V9.7318Z" fill="#91B3FA"/>
<path opacity="0.83" d="M3.63576 16.6247C3.63576 16.4039 3.77802 16.2255 3.95015 16.2255H54.4879C54.6631 16.2255 54.8022 16.4039 54.8022 16.6247C54.8022 16.8448 54.66 17.024 54.4879 17.024H3.95015C3.77487 17.024 3.63576 16.8448 3.63576 16.6247Z" fill="white"/>
<path opacity="0.83" d="M15.9632 24.8727C15.963 24.8203 15.9733 24.7684 15.9933 24.7199C16.0132 24.6715 16.0426 24.6275 16.0796 24.5904C16.1166 24.5533 16.1606 24.5239 16.209 24.5038C16.2574 24.4837 16.3092 24.4734 16.3616 24.4734H79.9503C80.0028 24.4733 80.0548 24.4835 80.1032 24.5036C80.1517 24.5236 80.1958 24.553 80.2329 24.5901C80.27 24.6272 80.2994 24.6713 80.3194 24.7197C80.3395 24.7682 80.3497 24.8202 80.3496 24.8727C80.3496 24.9786 80.3076 25.0801 80.2327 25.155C80.1578 25.2299 80.0562 25.2719 79.9503 25.2719H16.3616C16.2559 25.2717 16.1545 25.2296 16.0798 25.1547C16.0051 25.0799 15.9632 24.9784 15.9632 24.8727V24.8727Z" fill="white"/>
<path opacity="0.83" d="M59.597 16.6246C59.5969 16.5722 59.6072 16.5202 59.6272 16.4717C59.6473 16.4232 59.6767 16.3792 59.7138 16.3421C59.7509 16.305 59.7949 16.2756 59.8434 16.2555C59.8919 16.2355 59.9439 16.2252 59.9963 16.2253H80.4833C80.5357 16.2253 80.5876 16.2357 80.636 16.2558C80.6844 16.2758 80.7284 16.3052 80.7654 16.3423C80.8024 16.3794 80.8317 16.4234 80.8517 16.4719C80.8717 16.5203 80.8819 16.5722 80.8818 16.6246C80.8818 16.7304 80.8399 16.8318 80.7652 16.9067C80.6905 16.9815 80.5891 17.0237 80.4833 17.0239H59.9963C59.8904 17.0239 59.7889 16.9818 59.714 16.9069C59.6391 16.8321 59.597 16.7305 59.597 16.6246V16.6246Z" fill="white"/>
<path opacity="0.83" d="M42.8358 21.1481C42.8357 21.0957 42.8459 21.0438 42.8659 20.9953C42.8859 20.9469 42.9152 20.9029 42.9523 20.8658C42.9893 20.8287 43.0332 20.7993 43.0816 20.7792C43.13 20.7591 43.1819 20.7488 43.2343 20.7488H63.7213C63.7738 20.7487 63.8258 20.7589 63.8742 20.779C63.9227 20.799 63.9668 20.8284 64.0039 20.8655C64.041 20.9026 64.0704 20.9466 64.0904 20.9951C64.1104 21.0436 64.1207 21.0956 64.1206 21.1481V21.1481C64.1206 21.2004 64.1103 21.2523 64.0902 21.3007C64.0701 21.3491 64.0407 21.3931 64.0036 21.4301C63.9665 21.4671 63.9225 21.4965 63.8741 21.5164C63.8256 21.5364 63.7737 21.5466 63.7213 21.5465H43.2343C43.1286 21.5465 43.0273 21.5046 42.9525 21.4298C42.8778 21.3551 42.8358 21.2537 42.8358 21.1481V21.1481Z" fill="white"/>
<path opacity="0.83" d="M3.84704 21.1481C3.84704 20.9272 3.9893 20.7488 4.16143 20.7488H41.3809C41.5562 20.7488 41.6953 20.9272 41.6953 21.1481C41.6953 21.3681 41.5538 21.5465 41.3809 21.5465H4.16457C3.9893 21.5465 3.85019 21.3681 3.85019 21.1481H3.84704Z" fill="white"/>
<path opacity="0.83" d="M67.5779 21.1479C67.5778 21.0955 67.5881 21.0436 67.608 20.9952C67.628 20.9468 67.6574 20.9027 67.6944 20.8657C67.7314 20.8286 67.7753 20.7991 67.8237 20.7791C67.8721 20.759 67.924 20.7487 67.9764 20.7487H80.7492C80.8551 20.7487 80.9566 20.7907 81.0315 20.8656C81.1064 20.9405 81.1484 21.042 81.1484 21.1479V21.1479C81.1482 21.2537 81.1061 21.355 81.0312 21.4297C80.9564 21.5045 80.8549 21.5464 80.7492 21.5464H67.978C67.8723 21.5464 67.7709 21.5044 67.6962 21.4297C67.6215 21.355 67.5795 21.2536 67.5795 21.1479H67.5779Z" fill="white"/>
<path d="M98.0641 237.083C98.0641 237.083 98.8406 241.485 99.2218 245.835C99.2559 246.239 99.2078 246.645 99.0805 247.03C98.9533 247.414 98.7494 247.769 98.4812 248.073C98.213 248.376 97.8862 248.623 97.5202 248.796C97.1543 248.97 96.757 249.068 96.3522 249.084C90.5549 249.325 78.1547 249.795 73.7046 249.597C73.5494 249.589 73.3983 249.544 73.2638 249.467C73.1293 249.389 73.0153 249.28 72.9313 249.15C72.8473 249.019 72.7957 248.87 72.7808 248.715C72.7658 248.561 72.788 248.405 72.8455 248.26C73.0526 247.738 73.4528 247.316 73.9632 247.082L94.447 237.669L98.0641 237.083Z" fill="url(#paint5_linear_228_1543)"/>
<path d="M98.7026 234.5L98.0786 239.76C98.0786 239.76 94.4898 241.43 92.0392 239.55L93.5255 233.687L98.7026 234.5Z" fill="url(#paint6_linear_228_1543)"/>
<path d="M98.2306 135.604C98.5002 136.978 99.6775 204.155 92.493 234.259C92.4344 234.496 92.4626 234.746 92.5725 234.964C92.6823 235.182 92.8666 235.354 93.0919 235.448C94.1923 235.898 96.3529 236.548 98.9403 236.636C99.3302 236.649 99.7132 236.532 100.029 236.303C100.345 236.074 100.576 235.747 100.686 235.373C102.739 228.389 112.574 193.393 113.858 159.963C115.292 122.609 113.858 158.691 113.858 158.691L113.017 135.601L98.2306 135.604Z" fill="url(#paint7_linear_228_1543)"/>
<path d="M121.628 239.378C121.628 239.378 122.864 241.598 124.064 247.497C124.116 247.748 124.115 248.007 124.06 248.258C124.005 248.508 123.899 248.745 123.747 248.951C123.595 249.158 123.402 249.331 123.179 249.458C122.956 249.585 122.71 249.664 122.454 249.689C120.54 249.877 117.593 250.119 115.232 250.103C114.975 250.102 114.721 250.047 114.487 249.942C114.253 249.836 114.043 249.682 113.873 249.49C113.702 249.298 113.574 249.072 113.497 248.827C113.419 248.582 113.395 248.323 113.424 248.068C113.686 245.914 114.5 242.381 117.017 239.627L121.628 239.378Z" fill="url(#paint8_linear_228_1543)"/>
<path d="M122.713 232.612L121.255 240.566C121.255 240.566 119.813 241.639 116.96 240.862L117.656 232.303L122.713 232.612Z" fill="url(#paint9_linear_228_1543)"/>
<path d="M126.653 137.665C132.526 173.109 125.379 225.266 122.969 235.475C122.898 235.781 122.738 236.059 122.509 236.274C122.28 236.489 121.993 236.632 121.683 236.684C120.607 236.862 118.836 237.008 117.09 236.5C116.796 236.415 116.537 236.239 116.349 235.998C116.16 235.757 116.053 235.463 116.041 235.157C115.718 226.904 116.299 176.236 110.827 156.212C110.55 155.198 109.93 154.312 109.073 153.703L98.4515 146.152L97.6372 133.947L126.653 137.665Z" fill="url(#paint10_linear_228_1543)"/>
<path d="M89.2303 70.5068C106.831 70.216 126.249 75.1275 126.249 75.1275C131.496 105.739 127.167 141.047 127.167 141.047C113.541 144.62 98.1707 138.862 98.1707 138.862C95.9071 126.069 85.3406 90.0593 85.3406 90.0593C76.7413 88.992 69.6574 86.5107 63.8239 83.2309C68.2733 78.0725 70.371 71.5089 71.2828 67.6294C77.5053 69.5637 83.8017 70.5964 89.2303 70.5068Z" fill="url(#paint11_linear_228_1543)"/>
<path d="M37.2398 44.5824C38.9689 42.4941 41.1571 43.4821 41.1571 43.4821C43.7508 54.4227 57.3268 63.2932 71.2793 67.6293C70.3676 71.5089 68.2698 78.0725 63.8205 83.2308C40.6698 70.212 37.2398 44.5824 37.2398 44.5824Z" fill="url(#paint12_linear_228_1543)"/>
<path d="M37.6634 45.1145C37.4826 45.6898 39.5772 46.5654 40.8073 44.213C40.8505 43.0859 41.5367 38.2561 40.8631 37.3381C37.2783 32.4463 30.3233 26.3149 30.3233 26.3149C29.1443 27.4742 30.1166 28.6139 30.1166 28.6139L33.4907 32.1295C32.7833 33.4044 31.9235 34.4811 31.5203 36.024C31.2248 37.2016 31.3936 38.4478 31.9919 39.5043C32.5845 40.5708 33.3925 41.9581 34.1564 43.0411C35.601 45.098 37.6634 45.1145 37.6634 45.1145Z" fill="url(#paint13_linear_228_1543)"/>
<path d="M34.966 34.4097L38.0407 37.0191L39.0059 39.6128L36.2644 42.6545C36.2644 42.6545 35.3425 37.5048 34.6571 36.3903C33.9717 35.2758 34.3278 34.7398 34.966 34.4097Z" fill="url(#paint14_linear_228_1543)"/>
<path d="M119.5 92.1696L126.251 75.1274C126.251 75.1274 142.69 86.2992 145.394 100.46C142.287 100.689 136.635 101.497 131.102 104.29C129.886 97.603 119.5 92.1696 119.5 92.1696Z" fill="url(#paint15_linear_228_1543)"/>
<path d="M105.134 108.206C105.134 108.206 123.591 118.637 129.819 109.73C131.112 107.88 131.42 106.043 131.102 104.29C136.635 101.497 142.287 100.689 145.393 100.46C146.208 104.729 145.777 109.27 143.271 113.859C132.362 133.815 102.693 112.759 102.693 112.759L105.134 108.206Z" fill="url(#paint16_linear_228_1543)"/>
<path d="M107.348 121.402L97.2784 86.2206C97.223 86.026 97.1114 85.8521 96.9576 85.7207C96.8038 85.5892 96.6146 85.5061 96.4138 85.4818C94.5888 85.2696 89.3 84.6715 83.1938 84.1551C75.8395 83.5326 67.2976 83.0288 62.1935 83.4579C62.0261 83.4713 61.8644 83.5254 61.7227 83.6156C61.581 83.7058 61.4636 83.8294 61.3806 83.9754C61.2976 84.1215 61.2517 84.2857 61.2468 84.4536C61.2419 84.6215 61.2782 84.788 61.3526 84.9387C64.2551 90.8107 76.194 114.697 82.1721 122.521C82.2692 122.649 82.3949 122.753 82.5392 122.824C82.6834 122.894 82.8422 122.931 83.0028 122.929L106.374 122.712C106.532 122.709 106.687 122.67 106.827 122.598C106.968 122.527 107.09 122.423 107.184 122.297C107.278 122.17 107.342 122.024 107.37 121.869C107.399 121.713 107.391 121.554 107.348 121.402V121.402Z" fill="url(#paint17_linear_228_1543)"/>
<path d="M82.1458 81.1118L74.8426 79.8943C74.7536 79.8795 74.6622 79.8879 74.5774 79.9187C74.4926 79.9496 74.4171 80.0018 74.3584 80.0703C74.2997 80.1389 74.2596 80.2214 74.2422 80.3099C74.2247 80.3985 74.2304 80.4901 74.2587 80.5758L74.9817 82.7663C75.0123 82.8599 75.0688 82.9429 75.1446 83.0057C75.2204 83.0686 75.3124 83.1087 75.4101 83.1215L82.4374 84.0647C82.5216 84.0759 82.6072 84.0666 82.6869 84.0375C82.7667 84.0084 82.8381 83.9603 82.8952 83.8974C82.9522 83.8346 82.9932 83.7588 83.0145 83.6766C83.0358 83.5945 83.0368 83.5083 83.0175 83.4257L82.5703 81.5126C82.5471 81.4113 82.4945 81.3191 82.4189 81.2478C82.3433 81.1764 82.2483 81.1291 82.1458 81.1118Z" fill="url(#paint18_linear_228_1543)"/>
<path d="M87.6145 87.291L87.0125 84.1574C86.983 84.0044 86.905 83.8649 86.7901 83.7597C86.6751 83.6545 86.5293 83.5892 86.3743 83.5734L71.6232 82.0801C71.5082 82.0685 71.392 82.0846 71.2845 82.1271C71.1769 82.1696 71.081 82.2372 71.005 82.3243C70.9289 82.4114 70.8747 82.5154 70.8471 82.6277C70.8194 82.74 70.819 82.8573 70.8459 82.9698L71.7836 86.8752C71.8209 87.0266 71.9061 87.1619 72.0265 87.261C72.1468 87.3601 72.2959 87.4178 72.4517 87.4254L86.8663 88.1509C86.9759 88.1564 87.0854 88.1369 87.1864 88.094C87.2874 88.051 87.3774 87.9857 87.4494 87.9028C87.5215 87.82 87.5738 87.7219 87.6024 87.6159C87.631 87.51 87.6352 87.3989 87.6145 87.291V87.291Z" fill="url(#paint19_linear_228_1543)"/>
<path d="M104.918 112.903C104.918 112.903 106.321 107.133 105.755 105.086C105.189 103.039 104.092 100.407 100.436 100.992C96.7805 101.577 92.4687 103.114 92.4687 103.114C92.4687 103.114 92.6864 105.781 95.4648 104.922L93.7419 106.258C93.7419 106.258 93.9879 108.393 96.3356 107.252L94.733 109.021C94.733 109.021 95.7414 110.774 97.4674 109.649C99.1934 108.525 100.021 113.598 104.918 112.903Z" fill="url(#paint20_linear_228_1543)"/>
<path d="M107.058 56.2177L112.658 72.4087C112.703 72.5383 112.702 72.6799 112.653 72.8084C112.605 72.937 112.512 73.0443 112.392 73.1113C110.866 73.9554 105.366 76.3951 98.7384 72.1933C98.3959 71.9791 98.1049 71.6919 97.8861 71.3522C97.6674 71.0126 97.5263 70.6288 97.473 70.2284L95.6597 56.2114L107.058 56.2177Z" fill="url(#paint21_linear_228_1543)"/>
<path d="M94.8729 41.2207C94.8729 41.2207 88.7235 52.7964 89.5118 57.4729C90.3002 62.1494 97.9217 61.8131 104.576 58.0153L109.227 45.5184L94.8729 41.2207Z" fill="url(#paint22_linear_228_1543)"/>
<path d="M104.282 51.8738C104.219 51.8461 104.162 51.8048 104.116 51.7528C104.07 51.7009 104.036 51.6396 104.016 51.5732C103.997 51.5067 103.992 51.4368 104.001 51.3682C104.011 51.2996 104.036 51.2339 104.074 51.1759C104.567 50.4229 105.489 48.8872 105.785 47.5432C105.785 47.5432 106.89 46.8358 102.971 45.8973C99.0526 44.9589 93.2074 43.5033 91.9789 40.1668C90.7811 36.9145 93.9281 28.735 98.9489 35.2522C98.993 35.3104 99.0499 35.3577 99.1152 35.3905C99.1805 35.4232 99.2525 35.4405 99.3256 35.441C99.3986 35.4416 99.4708 35.4253 99.5366 35.3935C99.6024 35.3617 99.66 35.3153 99.705 35.2577C100.528 34.1864 102.692 31.9629 105.696 33.3109C108.507 34.5684 108.824 36.6323 108.785 37.6706C108.782 37.7421 108.795 37.8135 108.823 37.8793C108.851 37.9451 108.894 38.0036 108.948 38.0504C109.002 38.0972 109.066 38.1311 109.135 38.1494C109.205 38.1678 109.277 38.1701 109.347 38.1563C110.769 37.8852 114.179 37.6525 115.772 41.1517C117.083 44.0338 116.231 45.6655 115.457 46.4632C115.401 46.5217 115.36 46.5938 115.339 46.6726C115.318 46.7514 115.318 46.8342 115.338 46.9131C115.359 46.992 115.399 47.0644 115.455 47.1232C115.512 47.1821 115.582 47.2255 115.66 47.2492C116.595 47.5353 117.801 48.3268 117.68 50.5157C117.513 53.5409 114.131 53.2744 113.167 53.1369C113.09 53.1251 113.01 53.1326 112.936 53.1588C112.862 53.185 112.796 53.229 112.743 53.287C111.918 54.2003 108.197 58.0814 104.17 58.553C104.09 58.5614 104.008 58.5494 103.934 58.518C103.859 58.4867 103.793 58.437 103.743 58.3736C103.693 58.3102 103.659 58.2351 103.646 58.1553C103.632 58.0755 103.639 57.9936 103.665 57.9171L105.408 52.8508C105.447 52.7373 105.442 52.6132 105.394 52.5032C105.346 52.3932 105.258 52.3052 105.149 52.2566L104.282 51.8738Z" fill="url(#paint23_linear_228_1543)"/>
<path d="M103.581 52.5962C103.581 52.5962 107.96 49.5923 108.28 52.1246C108.6 54.657 104.337 55.7888 102.228 54.8457L103.581 52.5962Z" fill="url(#paint24_linear_228_1543)"/>
<defs>
<linearGradient id="paint0_linear_228_1543" x1="-28.1937" y1="283.077" x2="166.291" y2="41.54" gradientUnits="userSpaceOnUse">
<stop stop-color="#DAE3FE"/>
<stop offset="1" stop-color="#E9EFFD"/>
</linearGradient>
<linearGradient id="paint1_linear_228_1543" x1="164.569" y1="110.259" x2="37.822" y2="107.493" gradientUnits="userSpaceOnUse">
<stop stop-color="#09005D"/>
<stop offset="1" stop-color="#1A0F91"/>
</linearGradient>
<linearGradient id="paint2_linear_228_1543" x1="156.992" y1="104.886" x2="45.6118" y2="104.886" gradientUnits="userSpaceOnUse">
<stop stop-color="#4F52FF"/>
<stop offset="1" stop-color="#4042E2"/>
</linearGradient>
<linearGradient id="paint3_linear_228_1543" x1="129.846" y1="157.517" x2="96.854" y2="87.2768" gradientUnits="userSpaceOnUse">
<stop stop-color="#FE7062"/>
<stop offset="1" stop-color="#FF928E"/>
</linearGradient>
<linearGradient id="paint4_linear_228_1543" x1="87.8648" y1="135.422" x2="105.63" y2="156.882" gradientUnits="userSpaceOnUse">
<stop stop-color="#E1473D"/>
<stop offset="1" stop-color="#E9605A"/>
</linearGradient>
<linearGradient id="paint5_linear_228_1543" x1="74.353" y1="231.005" x2="149.364" y2="312.597" gradientUnits="userSpaceOnUse">
<stop stop-color="#CB236D"/>
<stop offset="1" stop-color="#4C246D"/>
</linearGradient>
<linearGradient id="paint6_linear_228_1543" x1="98.7011" y1="237.065" x2="92.0376" y2="237.065" gradientUnits="userSpaceOnUse">
<stop stop-color="#FEBBBA"/>
<stop offset="1" stop-color="#FF928E"/>
</linearGradient>
<linearGradient id="paint7_linear_228_1543" x1="114.499" y1="186.119" x2="92.4686" y2="186.119" gradientUnits="userSpaceOnUse">
<stop stop-color="#09005D"/>
<stop offset="1" stop-color="#1A0F91"/>
</linearGradient>
<linearGradient id="paint8_linear_228_1543" x1="91.1808" y1="215.535" x2="166.192" y2="297.126" gradientUnits="userSpaceOnUse">
<stop stop-color="#CB236D"/>
<stop offset="1" stop-color="#4C246D"/>
</linearGradient>
<linearGradient id="paint9_linear_228_1543" x1="122.713" y1="236.724" x2="116.96" y2="236.724" gradientUnits="userSpaceOnUse">
<stop stop-color="#FEBBBA"/>
<stop offset="1" stop-color="#FF928E"/>
</linearGradient>
<linearGradient id="paint10_linear_228_1543" x1="128.914" y1="185.398" x2="97.6372" y2="185.398" gradientUnits="userSpaceOnUse">
<stop stop-color="#09005D"/>
<stop offset="1" stop-color="#1A0F91"/>
</linearGradient>
<linearGradient id="paint11_linear_228_1543" x1="100.555" y1="88.2013" x2="61.1776" y2="23.8148" gradientUnits="userSpaceOnUse">
<stop stop-color="#FE7062"/>
<stop offset="1" stop-color="#FF928E"/>
</linearGradient>
<linearGradient id="paint12_linear_228_1543" x1="71.2832" y1="63.2397" x2="37.2438" y2="63.2397" gradientUnits="userSpaceOnUse">
<stop stop-color="#FEBBBA"/>
<stop offset="1" stop-color="#FF928E"/>
</linearGradient>
<linearGradient id="paint13_linear_228_1543" x1="44.8267" y1="57.5336" x2="67.6677" y2="109.503" gradientUnits="userSpaceOnUse">
<stop stop-color="#FEBBBA"/>
<stop offset="1" stop-color="#FF928E"/>
</linearGradient>
<linearGradient id="paint14_linear_228_1543" x1="37.4072" y1="40.2266" x2="27.8766" y2="25.573" gradientUnits="userSpaceOnUse">
<stop stop-color="#FEBBBA"/>
<stop offset="1" stop-color="#FF928E"/>
</linearGradient>
<linearGradient id="paint15_linear_228_1543" x1="120.863" y1="75.7814" x2="81.4857" y2="11.3949" gradientUnits="userSpaceOnUse">
<stop stop-color="#FE7062"/>
<stop offset="1" stop-color="#FF928E"/>
</linearGradient>
<linearGradient id="paint16_linear_228_1543" x1="145.768" y1="111.456" x2="102.691" y2="111.456" gradientUnits="userSpaceOnUse">
<stop stop-color="#FEBBBA"/>
<stop offset="1" stop-color="#FF928E"/>
</linearGradient>
<linearGradient id="paint17_linear_228_1543" x1="89.6584" y1="80.8289" x2="65.9725" y2="179.523" gradientUnits="userSpaceOnUse">
<stop stop-color="#09005D"/>
<stop offset="1" stop-color="#1A0F91"/>
</linearGradient>
<linearGradient id="paint18_linear_228_1543" x1="74.8285" y1="65.2722" x2="79.8728" y2="87.4247" gradientUnits="userSpaceOnUse">
<stop stop-color="#4F52FF"/>
<stop offset="1" stop-color="#4042E2"/>
</linearGradient>
<linearGradient id="paint19_linear_228_1543" x1="77.4685" y1="74.5646" x2="79.8814" y2="89.0398" gradientUnits="userSpaceOnUse">
<stop stop-color="#4F52FF"/>
<stop offset="1" stop-color="#4042E2"/>
</linearGradient>
<linearGradient id="paint20_linear_228_1543" x1="105.889" y1="106.939" x2="92.4687" y2="106.939" gradientUnits="userSpaceOnUse">
<stop stop-color="#FEBBBA"/>
<stop offset="1" stop-color="#FF928E"/>
</linearGradient>
<linearGradient id="paint21_linear_228_1543" x1="112.691" y1="65.4033" x2="95.6597" y2="65.4033" gradientUnits="userSpaceOnUse">
<stop stop-color="#FEBBBA"/>
<stop offset="1" stop-color="#FF928E"/>
</linearGradient>
<linearGradient id="paint22_linear_228_1543" x1="92.9151" y1="55.5401" x2="111.753" y2="44.0608" gradientUnits="userSpaceOnUse">
<stop stop-color="#FEBBBA"/>
<stop offset="1" stop-color="#FF928E"/>
</linearGradient>
<linearGradient id="paint23_linear_228_1543" x1="121.726" y1="31.9569" x2="97.3887" y2="51.1635" gradientUnits="userSpaceOnUse">
<stop stop-color="#09005D"/>
<stop offset="1" stop-color="#1A0F91"/>
</linearGradient>
<linearGradient id="paint24_linear_228_1543" x1="97.8604" y1="59.8258" x2="114.808" y2="49.4976" gradientUnits="userSpaceOnUse">
<stop stop-color="#FEBBBA"/>
<stop offset="1" stop-color="#FF928E"/>
</linearGradient>
</defs>
</svg>
