<svg width="265" height="246" viewBox="0 0 265 246" fill="none" xmlns="http://www.w3.org/2000/svg">
<path d="M204.092 157.321C201.755 162.27 199.171 165.868 197.128 168.711C173.11 202.134 133.675 209.924 125.225 211.382C112.746 213.533 88.6263 217.692 65.9305 205.546C31.5936 187.17 20.2967 142.06 29.4748 106.002C31.1533 99.4061 39.5309 63.1528 75.5625 44.2416C97.3668 32.7973 125.92 28.4933 150.492 36.5913C202.065 53.5901 221.793 119.822 204.092 157.321Z" fill="url(#paint0_linear_221_1494)"/>
<path d="M41.3952 66.0521C50.0604 92.9263 80.0716 185.578 92.3073 217.808C93.6036 221.222 97.0506 223.055 100.188 222C115.711 216.778 172.394 197.005 197.059 186.38C202.196 184.165 204.713 177.89 202.799 172.031C193.603 143.861 167.419 64.7515 152.166 29.7398C150.339 25.5459 146.1 23.2527 142.078 24.2828C124.737 28.7184 66.7263 45.4517 45.6092 55.1847C41.8013 56.9402 39.9781 61.6578 41.3952 66.0521Z" fill="url(#paint1_linear_221_1494)"/>
<path d="M51.081 71.6014C57.7164 93.3916 79.93 165.83 89.9288 191.944C91.3902 195.76 95.2068 197.852 98.7461 196.772C113.326 192.323 162.678 176.021 182.941 166.266C186.589 164.509 188.367 160.002 187.11 155.722C180.561 133.409 160.501 65.7221 150.639 39.8926C149.066 35.7719 144.986 33.4613 141.128 34.4947C125.169 38.7709 72.2102 54.6003 54.8187 62.3834C51.5504 63.8455 49.9328 67.8285 51.081 71.6014Z" fill="#91B3FA"/>
<path d="M81.6778 45.4995C81.9548 46.285 82.7405 46.7253 83.4703 46.5022C87.071 45.3933 97.2147 42.274 101.758 40.9089C102.654 40.639 103.037 39.5195 102.537 38.6366L102.452 38.4854C102.111 37.8824 101.452 37.5785 100.837 37.7392C97.7269 38.5495 88.3703 41.0773 82.4463 43.5453C81.7348 43.8424 81.399 44.7087 81.6778 45.4995Z" fill="#7D97F4"/>
<path d="M104.577 191.51C103.094 192.021 101.497 191.961 100.125 191.342C98.7528 190.724 97.7138 189.595 97.2279 188.196L80.7175 140.662C80.4666 139.94 80.3709 139.167 80.4363 138.39C80.5017 137.613 80.7268 136.848 81.0982 136.14C81.4696 135.432 81.9796 134.796 82.598 134.269C83.2163 133.743 83.9303 133.337 84.6974 133.076L159.098 105.49C160.442 104.992 161.903 105.02 163.163 105.569C164.422 106.118 165.378 107.142 165.822 108.418L182.545 156.564C182.996 157.863 182.886 159.314 182.241 160.596C181.595 161.879 180.466 162.888 179.102 163.403L104.577 191.51Z" fill="#BDD0FB"/>
<path d="M159.819 93.7937C160.017 94.3643 160.094 94.9743 160.045 95.588C159.996 96.2018 159.823 96.8069 159.534 97.3682C159.246 97.9296 158.849 98.4358 158.366 98.8574C157.882 99.279 157.323 99.6076 156.721 99.824L80.0654 127.347C78.8797 127.75 77.606 127.698 76.5125 127.202C75.419 126.705 74.591 125.804 74.2028 124.688L56.7328 74.3821C56.5324 73.8039 56.456 73.1857 56.5084 72.5641C56.5607 71.9425 56.7407 71.3303 57.0376 70.7639C57.3344 70.1975 57.7421 69.6884 58.2365 69.2669C58.7308 68.8455 59.3016 68.5202 59.915 68.3105L136.885 42.0057C138.071 41.6003 139.347 41.6506 140.443 42.1461C141.539 42.6416 142.369 43.5435 142.758 44.6615L159.819 93.7937Z" fill="#BDD0FB"/>
<path opacity="0.77" d="M137.068 50.1358L99.4862 63.9433C99.2174 64.0421 99.0716 64.3242 99.1604 64.5735L100.012 66.9612C100.101 67.2105 100.391 67.3325 100.659 67.2338L138.241 53.4262C138.51 53.3275 138.656 53.0453 138.567 52.7961L137.715 50.4084C137.627 50.1591 137.337 50.037 137.068 50.1358Z" fill="white"/>
<path opacity="0.77" d="M139.22 56.0813L101.638 69.8889C101.369 69.9876 101.223 70.2697 101.312 70.519L102.164 72.9067C102.252 73.156 102.542 73.2781 102.811 73.1793L140.393 59.3718C140.662 59.273 140.807 58.9909 140.719 58.7416L139.867 56.3539C139.778 56.1046 139.488 55.9826 139.22 56.0813Z" fill="white"/>
<path d="M173.509 159.985L106.885 185.105C104.688 185.933 102.363 185.011 101.59 183.005L85.5438 141.352C85.3549 140.865 85.2721 140.34 85.3004 139.809C85.3287 139.277 85.4675 138.751 85.7084 138.261C85.9593 137.743 86.313 137.273 86.748 136.881C87.1831 136.489 87.6905 136.182 88.2396 135.979L156.257 110.333C158.485 109.493 160.878 110.486 161.594 112.547L176.248 154.724C176.964 156.786 175.735 159.146 173.509 159.985ZM88.4528 136.586C87.9893 136.757 87.5609 137.016 87.1935 137.347C86.8261 137.678 86.5273 138.074 86.3152 138.512C86.1138 138.921 85.9975 139.36 85.9732 139.804C85.949 140.247 86.0174 140.686 86.1743 141.093L102.221 182.746C102.868 184.426 104.825 185.196 106.675 184.499L173.299 159.379C175.174 158.672 176.212 156.692 175.612 154.966L160.958 112.789C160.359 111.063 158.343 110.234 156.469 110.941L88.4528 136.586Z" fill="white"/>
<path d="M103.566 128.928L121.745 179.894L122.429 179.649L104.251 128.683L103.566 128.928Z" fill="white"/>
<path d="M142.065 114.992L160.243 165.958L160.928 165.713L142.75 114.747L142.065 114.992Z" fill="white"/>
<path d="M107.833 139.771L108.036 140.346L162.985 120.809L162.782 120.234L107.833 139.771Z" fill="white"/>
<path d="M168.38 135.699L113.414 155.642L113.621 156.216L168.587 136.273L168.38 135.699Z" fill="white"/>
<path d="M172.944 148.061L117.977 168.004L118.184 168.578L173.151 148.635L172.944 148.061Z" fill="white"/>
<path d="M144.45 79.03L76.8553 104.075C75.9383 104.413 74.9391 104.397 74.0768 104.031C73.2144 103.665 72.5592 102.979 72.2546 102.122L70.2443 96.4359C69.9428 95.5781 70.017 94.6212 70.4508 93.7749C70.8845 92.9287 71.6425 92.262 72.5585 91.921L140.153 66.8762C141.07 66.5382 142.069 66.5539 142.931 66.9199C143.793 67.286 144.449 67.9724 144.753 68.829L146.762 74.5105C147.065 75.3686 146.992 76.3264 146.558 77.1737C146.125 78.021 145.366 78.6886 144.45 79.03V79.03ZM72.7663 92.509C72.017 92.7882 71.3971 93.3337 71.0422 94.026C70.6874 94.7183 70.6265 95.5011 70.873 96.203L72.8816 101.884C73.1308 102.585 73.667 103.147 74.3725 103.446C75.078 103.746 75.8955 103.759 76.6457 103.482L144.24 78.4374C144.989 78.1583 145.61 77.6128 145.964 76.9205C146.319 76.2281 146.38 75.4452 146.133 74.7434L144.125 69.0619C143.875 68.3612 143.339 67.7996 142.634 67.5001C141.928 67.2007 141.111 67.1878 140.361 67.4642L72.7663 92.509Z" fill="white"/>
<path d="M150.427 95.5435L82.8332 120.588C81.9162 120.927 80.917 120.911 80.0546 120.545C79.1922 120.179 78.537 119.492 78.2326 118.635L76.2233 112.952C75.9218 112.094 75.996 111.138 76.4298 110.291C76.8635 109.445 77.6215 108.778 78.5375 108.437L146.132 83.3927C147.049 83.0546 148.048 83.0704 148.91 83.4364C149.772 83.8024 150.428 84.4889 150.732 85.3454L152.741 91.0269C153.043 91.8848 152.969 92.8421 152.536 93.6887C152.102 94.5354 151.344 95.2024 150.427 95.5435V95.5435ZM78.7447 109.024C77.9953 109.303 77.3753 109.848 77.0204 110.54C76.6655 111.233 76.6047 112.016 76.8513 112.718L78.8599 118.399C79.1092 119.1 79.6453 119.662 80.3509 119.961C81.0564 120.26 81.8738 120.273 82.6241 119.997L150.218 94.952C150.968 94.6729 151.588 94.1275 151.943 93.4351C152.298 92.7427 152.358 91.9599 152.112 91.2581L150.104 85.5783C149.854 84.8775 149.318 84.3158 148.613 84.0164C147.907 83.7169 147.09 83.704 146.34 83.9806L78.7447 109.024Z" fill="white"/>
<path d="M42.5496 166.942L49.522 198.38L120.867 180.123L113.895 148.685L42.5496 166.942Z" fill="#7D97F4"/>
<path opacity="0.5" d="M111.347 156.183L115.325 174.323C113.797 174.718 112.806 176.386 113.161 178.003C113.171 178.054 113.2 178.177 113.203 178.176L55.7737 193.035C55.7737 193.035 55.7508 192.907 55.741 192.859C55.3862 191.242 53.8574 190.24 52.304 190.642C52.2864 190.646 52.2685 190.647 52.2509 190.646L48.3642 172.913C50.983 172.235 50.8636 170.51 50.5087 168.894C50.4972 168.842 50.4725 168.839 50.47 168.84L107.901 153.984C107.901 153.984 107.898 153.994 107.91 154.048C108.26 155.658 109.819 156.578 111.347 156.183Z" fill="white"/>
<path d="M91.1276 177.706C93.7393 172.258 91.6469 165.931 86.4541 163.575C81.2613 161.219 74.9344 163.725 72.3227 169.174C69.711 174.622 71.8034 180.949 76.9962 183.305C82.189 185.661 88.5158 183.155 91.1276 177.706Z" fill="url(#paint2_linear_221_1494)"/>
<path d="M82.1649 180.591L81.9289 179.512C80.746 179.771 79.527 179.807 78.6242 179.676C78.4687 179.652 78.3307 179.573 78.2351 179.455C78.1395 179.337 78.0926 179.187 78.103 179.033L78.167 177.955C78.1729 177.862 78.1991 177.77 78.2439 177.686C78.2888 177.601 78.3511 177.526 78.4269 177.465C78.5026 177.404 78.59 177.359 78.6831 177.333C78.7762 177.306 78.873 177.299 78.9668 177.312C79.9716 177.451 81.0063 177.394 82.0116 177.144C83.1412 176.851 83.9038 176.265 83.7393 175.512C83.591 174.833 82.8511 174.599 81.1925 174.602C78.8232 174.596 77.0095 174.077 76.5958 172.187C76.2219 170.48 77.2404 168.839 79.4237 167.904L79.1878 166.825C79.1513 166.658 79.1854 166.48 79.2826 166.331C79.3797 166.181 79.532 166.071 79.706 166.026L80.3677 165.854C80.4538 165.832 80.5426 165.826 80.6291 165.837C80.7155 165.848 80.7979 165.876 80.8716 165.918C80.9452 165.961 81.0087 166.017 81.0583 166.085C81.1078 166.153 81.1426 166.23 81.1606 166.313L81.3728 167.281C82.4677 167.041 83.2965 167.014 83.9697 167.063C84.1362 167.076 84.2879 167.15 84.3942 167.27C84.5006 167.391 84.5538 167.548 84.5431 167.712L84.483 168.708C84.4773 168.798 84.4524 168.887 84.4099 168.969C84.3674 169.052 84.3082 169.125 84.2362 169.186C84.1641 169.247 84.0807 169.293 83.9912 169.321C83.9018 169.35 83.8083 169.36 83.7166 169.352C82.8701 169.27 82.0062 169.341 81.1681 169.563C79.8273 169.91 79.5608 170.542 79.6653 171.019C79.796 171.606 80.6864 171.802 82.5421 171.863C85.1887 171.933 86.4398 172.656 86.829 174.437C87.1863 176.07 86.2429 177.867 83.872 178.87L84.1359 180.077C84.1539 180.16 84.1548 180.246 84.1386 180.33C84.1223 180.415 84.0891 180.497 84.041 180.571C83.9928 180.645 83.9306 180.71 83.858 180.763C83.7853 180.815 83.7036 180.853 83.6174 180.875L82.9559 181.048C82.7825 181.092 82.602 181.069 82.4537 180.983C82.3055 180.898 82.2016 180.757 82.1649 180.591V180.591Z" fill="white"/>
<path d="M46.061 173.391C46.0514 173.377 46.0445 173.361 46.0405 173.344L44.7415 167.444C44.7336 167.408 44.741 167.37 44.7621 167.338C44.7831 167.306 44.816 167.282 44.8536 167.272L62.3649 162.76C62.3835 162.755 62.4027 162.754 62.4213 162.756C62.44 162.759 62.4578 162.765 62.4737 162.774C62.4896 162.783 62.5033 162.795 62.5141 162.809C62.5248 162.824 62.5324 162.84 62.5363 162.858C62.5402 162.876 62.5405 162.894 62.537 162.912C62.5335 162.931 62.5264 162.948 62.5161 162.964C62.5057 162.98 62.4923 162.994 62.4767 163.005C62.461 163.016 62.4434 163.025 62.4248 163.029L45.0543 167.507L46.3242 173.273C46.3314 173.305 46.3267 173.338 46.311 173.368C46.2953 173.398 46.2696 173.422 46.2383 173.436C46.207 173.45 46.1722 173.454 46.1399 173.446C46.1076 173.438 46.0799 173.419 46.0616 173.392L46.061 173.391Z" fill="#BDD0FB"/>
<path d="M100.943 184.475C100.933 184.462 100.926 184.446 100.923 184.429C100.915 184.393 100.922 184.355 100.943 184.323C100.964 184.291 100.997 184.268 101.035 184.258L118.199 179.831L116.837 173.641C116.829 173.605 116.836 173.567 116.857 173.534C116.878 173.502 116.911 173.479 116.949 173.469C116.986 173.459 117.025 173.464 117.058 173.483C117.09 173.501 117.112 173.532 117.12 173.568L118.511 179.893C118.515 179.911 118.516 179.929 118.512 179.947C118.509 179.966 118.502 179.983 118.491 179.999C118.481 180.015 118.467 180.029 118.452 180.04C118.436 180.051 118.418 180.059 118.4 180.064L101.091 184.529C101.063 184.535 101.034 184.534 101.008 184.524C100.981 184.515 100.959 184.498 100.943 184.475Z" fill="white"/>
<path d="M49.8398 157.12L48.895 189.112L120.406 187.089L121.351 155.097L49.8398 157.12Z" fill="#91B3FA"/>
<path d="M117.837 161.557L117.292 180.466C115.724 180.509 114.378 182.016 114.328 183.705C114.326 183.759 114.341 183.744 114.334 183.962L55.4559 185.663C55.4651 185.445 55.4676 185.459 55.4692 185.406C55.5172 183.72 54.279 182.341 52.6864 182.387C52.6629 182.387 52.6266 182.341 52.6266 182.341L53.1599 163.857C55.8454 163.779 56.1561 162.007 56.2049 160.322C56.2073 160.289 56.2023 160.256 56.1903 160.226L115.068 158.522C115.056 158.553 115.051 158.586 115.051 158.619C115.002 160.304 116.271 161.602 117.837 161.557Z" fill="#BDD0FB"/>
<path d="M94.5729 176.222C97.1846 170.774 95.0922 164.447 89.8994 162.091C84.7066 159.735 78.3798 162.241 75.768 167.69C73.1563 173.138 75.2487 179.465 80.4415 181.821C85.6343 184.177 91.9612 181.671 94.5729 176.222Z" fill="url(#paint3_linear_221_1494)"/>
<path d="M83.8795 179.082L83.9114 177.969C82.7198 177.957 81.5474 177.717 80.7195 177.384C80.5769 177.325 80.4639 177.217 80.4009 177.079C80.3379 176.942 80.3292 176.784 80.3762 176.634L80.6965 175.589C80.7243 175.499 80.7714 175.414 80.8345 175.341C80.8976 175.268 80.9752 175.209 81.0622 175.166C81.1492 175.123 81.2436 175.099 81.3389 175.094C81.4342 175.089 81.5283 175.104 81.6148 175.138C82.5407 175.501 83.5417 175.678 84.5607 175.66C85.7098 175.627 86.5774 175.223 86.6001 174.446C86.6202 173.745 85.9701 173.347 84.3847 172.977C82.1236 172.437 80.5158 171.517 80.5712 169.564C80.6215 167.801 81.985 166.417 84.2935 165.991L84.3253 164.878C84.3305 164.706 84.4056 164.539 84.5341 164.413C84.6627 164.288 84.8343 164.215 85.0111 164.21L85.6839 164.19C85.7714 164.188 85.8577 164.202 85.9376 164.232C86.0176 164.262 86.0897 164.308 86.1499 164.367C86.21 164.425 86.2571 164.495 86.2883 164.573C86.3195 164.651 86.3342 164.735 86.3317 164.82L86.3031 165.819C87.4056 165.83 88.2035 165.991 88.8333 166.191C88.989 166.241 89.116 166.349 89.1887 166.491C89.2614 166.633 89.2745 166.8 89.2254 166.958L88.9302 167.925C88.9036 168.013 88.8586 168.095 88.7981 168.167C88.7377 168.239 88.6631 168.299 88.5792 168.343C88.4953 168.386 88.404 168.413 88.3111 168.42C88.2182 168.428 88.1258 168.417 88.0399 168.387C87.2513 168.115 86.4096 167.991 85.5568 168.019C84.193 168.058 83.787 168.618 83.7735 169.111C83.7564 169.718 84.5621 170.111 86.319 170.59C88.8296 171.255 89.8517 172.249 89.7984 174.086C89.7501 175.773 88.4212 177.325 85.9138 177.778L85.8784 179.024C85.8759 179.109 85.8562 179.194 85.8204 179.274C85.7847 179.353 85.7334 179.426 85.6698 179.488C85.6061 179.55 85.5312 179.6 85.4493 179.635C85.3674 179.67 85.2802 179.689 85.1926 179.692L84.5199 179.711C84.3445 179.715 84.1789 179.65 84.0591 179.533C83.9392 179.415 83.8747 179.253 83.8795 179.082Z" fill="white"/>
<path d="M50.7016 163.813C50.6959 163.797 50.6931 163.78 50.6933 163.763L50.8772 157.444C50.8777 157.426 50.8819 157.407 50.8896 157.39C50.8973 157.373 50.9083 157.357 50.9221 157.344C50.9358 157.331 50.952 157.32 50.9698 157.313C50.9875 157.305 51.0064 157.301 51.0254 157.3L68.6829 156.794C68.7019 156.793 68.7205 156.796 68.7378 156.803C68.7551 156.809 68.7707 156.819 68.7837 156.831C68.7967 156.844 68.8069 156.859 68.8136 156.876C68.8204 156.892 68.8236 156.91 68.823 156.929C68.8225 156.947 68.8182 156.965 68.8105 156.982C68.8027 156.999 68.7917 157.015 68.7779 157.028C68.7641 157.041 68.7479 157.052 68.7302 157.06C68.7125 157.067 68.6936 157.071 68.6747 157.072L51.1622 157.575L50.9824 163.755C50.9811 163.787 50.9682 163.818 50.9459 163.844C50.9237 163.869 50.8934 163.887 50.8603 163.894C50.8272 163.901 50.7932 163.896 50.7643 163.882C50.7354 163.867 50.7132 163.843 50.7016 163.813V163.813Z" fill="#BDD0FB"/>
<path d="M101.418 187.305C101.412 187.289 101.409 187.272 101.41 187.255C101.411 187.236 101.415 187.218 101.423 187.201C101.431 187.184 101.442 187.168 101.455 187.155C101.469 187.142 101.485 187.131 101.503 187.124C101.521 187.116 101.54 187.112 101.559 187.111L119.071 186.608L119.251 180.429C119.252 180.392 119.268 180.356 119.296 180.329C119.324 180.302 119.361 180.286 119.399 180.285C119.438 180.284 119.474 180.297 119.5 180.323C119.527 180.348 119.541 180.383 119.54 180.42L119.356 186.739C119.356 186.757 119.351 186.776 119.344 186.793C119.336 186.81 119.325 186.826 119.311 186.839C119.297 186.852 119.281 186.863 119.264 186.871C119.246 186.878 119.227 186.882 119.208 186.883L101.551 187.39C101.521 187.391 101.493 187.383 101.47 187.368C101.446 187.353 101.428 187.331 101.418 187.305V187.305Z" fill="white"/>
<path d="M61.0687 144.078L49.9517 177.901L118.165 198.344L129.282 164.521L61.0687 144.078Z" fill="#7D97F4"/>
<path d="M123.665 170.627L117.247 188.936C115.76 188.517 114.011 189.57 113.439 191.2C113.42 191.252 113.425 191.222 113.354 191.433L57.4604 175.713C57.5366 175.504 57.5293 175.533 57.5475 175.481C58.1194 173.85 57.3985 172.149 55.8865 171.723C55.8648 171.717 55.8579 171.672 55.8579 171.672L62.1308 153.776C64.6796 154.493 65.5152 152.834 66.0869 151.201C66.099 151.162 66.1013 151.122 66.0935 151.083L121.987 166.803C121.987 166.803 121.97 166.861 121.953 166.912C121.379 168.546 122.177 170.209 123.665 170.627Z" fill="#BDD0FB"/>
<path d="M93.9508 180.512C99.393 177.898 101.892 171.573 99.5328 166.386C97.1734 161.199 90.8489 159.114 85.4067 161.728C79.9645 164.343 77.4654 170.667 79.8248 175.854C82.1842 181.041 88.5086 183.127 93.9508 180.512Z" fill="#7D97F4"/>
<path d="M86.2599 177.643L86.6339 176.576C85.5272 176.216 84.5098 175.642 83.8412 175.077C83.7267 174.978 83.6548 174.84 83.6386 174.689C83.6225 174.537 83.663 174.382 83.753 174.251L84.3761 173.334C84.4298 173.255 84.4996 173.187 84.5808 173.135C84.662 173.083 84.7528 173.048 84.8469 173.032C84.9411 173.016 85.0365 173.02 85.1268 173.043C85.2171 173.066 85.3001 173.108 85.3703 173.166C86.1208 173.788 86.9988 174.252 87.954 174.532C89.0348 174.836 89.9672 174.7 90.2287 173.955C90.464 173.283 89.981 172.709 88.6193 171.887C86.68 170.703 85.4665 169.344 86.1217 167.475C86.7132 165.786 88.4106 164.848 90.6921 165.111L91.0661 164.044C91.1239 163.879 91.2454 163.74 91.4037 163.656C91.5621 163.573 91.7445 163.552 91.9108 163.599L92.5422 163.775C92.6246 163.798 92.7005 163.837 92.7657 163.889C92.8308 163.942 92.8839 164.007 92.9219 164.081C92.9599 164.155 92.9821 164.237 92.9872 164.321C92.9923 164.405 92.9801 164.491 92.9515 164.572L92.6147 165.528C93.6382 165.861 94.3327 166.249 94.859 166.627C94.9884 166.721 95.0734 166.862 95.0972 167.021C95.121 167.179 95.0818 167.345 94.9873 167.483L94.4131 168.332C94.361 168.409 94.2936 168.476 94.215 168.528C94.1365 168.58 94.0486 168.615 93.957 168.633C93.8654 168.65 93.7722 168.649 93.6833 168.63C93.5944 168.61 93.5118 168.572 93.4409 168.518C92.7904 168.025 92.0451 167.658 91.2422 167.436C89.9588 167.076 89.409 167.498 89.2439 167.97C89.0402 168.551 89.6693 169.167 91.1573 170.146C93.2903 171.523 93.9355 172.782 93.3184 174.543C92.7523 176.158 91.0343 177.268 88.5633 176.974L88.1447 178.167C88.0868 178.332 87.9654 178.472 87.807 178.555C87.6486 178.639 87.4663 178.659 87.3 178.613L86.6685 178.437C86.5033 178.39 86.3676 178.28 86.291 178.132C86.2145 177.983 86.2033 177.807 86.2599 177.643V177.643Z" fill="white"/>
<path d="M59.1294 153.16C59.1187 153.131 59.1187 153.098 59.1295 153.067L61.2942 146.907C61.3003 146.889 61.3099 146.873 61.3225 146.858C61.3351 146.844 61.3505 146.831 61.3676 146.823C61.3848 146.813 61.4035 146.808 61.4226 146.806C61.4417 146.803 61.4609 146.805 61.4789 146.81L78.4795 151.581C78.5159 151.591 78.5458 151.615 78.5626 151.648C78.5794 151.68 78.5818 151.719 78.5692 151.755C78.5565 151.791 78.53 151.822 78.4953 151.84C78.4606 151.858 78.4206 151.863 78.3842 151.852L61.5205 147.12L59.4041 153.144C59.3913 153.18 59.3652 153.209 59.3312 153.228C59.2972 153.246 59.2581 153.25 59.2221 153.241C59.2011 153.235 59.1818 153.225 59.1658 153.211C59.1497 153.197 59.1373 153.18 59.1294 153.16V153.16Z" fill="#BDD0FB"/>
<path d="M100.67 190.783C100.66 190.758 100.659 190.731 100.664 190.705C100.67 190.679 100.684 190.654 100.703 190.634C100.722 190.614 100.747 190.599 100.774 190.592C100.801 190.585 100.829 190.585 100.854 190.592L117.506 195.265L119.623 189.241C119.628 189.222 119.638 189.205 119.65 189.189C119.663 189.174 119.678 189.161 119.696 189.152C119.713 189.142 119.732 189.136 119.752 189.134C119.771 189.131 119.791 189.133 119.809 189.138C119.828 189.143 119.845 189.152 119.859 189.164C119.874 189.176 119.886 189.191 119.894 189.208C119.902 189.224 119.906 189.243 119.907 189.262C119.907 189.281 119.904 189.3 119.897 189.318L117.733 195.478C117.727 195.496 117.717 195.513 117.704 195.527C117.692 195.542 117.676 195.554 117.659 195.563C117.642 195.572 117.623 195.578 117.604 195.58C117.585 195.582 117.566 195.581 117.548 195.575L100.759 190.864C100.739 190.858 100.72 190.848 100.704 190.834C100.689 190.82 100.677 190.802 100.67 190.783Z" fill="#BDD0FB"/>
<path d="M71.5612 166.335C71.3632 166.9 71.0005 167.404 70.5191 167.785C70.0378 168.166 69.4593 168.405 68.8568 168.474C68.2544 168.542 67.655 168.435 67.1346 168.168C66.6141 167.9 66.1958 167.484 65.9327 166.971C65.6696 166.458 65.5735 165.871 65.6564 165.286C65.7394 164.7 65.9977 164.142 66.3988 163.681C66.7998 163.221 67.3256 162.878 67.9096 162.698C68.4936 162.517 69.1095 162.506 69.6796 162.666C70.4442 162.881 71.0719 163.389 71.4247 164.077C71.7776 164.764 71.8267 165.577 71.5612 166.335V166.335Z" fill="#7D97F4"/>
<path d="M114.191 180.957C115.234 179.601 115.036 177.712 113.749 176.737C112.461 175.763 110.572 176.072 109.529 177.428C108.485 178.784 108.683 180.673 109.971 181.648C111.258 182.622 113.147 182.313 114.191 180.957Z" fill="#7D97F4"/>
<path d="M90.0582 184.871L53.1196 198.554C52.9252 198.626 52.8197 198.832 52.884 199.014L54.7908 204.406C54.8551 204.588 55.0648 204.677 55.2592 204.605L92.1978 190.921C92.3922 190.849 92.4977 190.644 92.4334 190.462L90.5266 185.069C90.4623 184.888 90.2526 184.799 90.0582 184.871Z" fill="url(#paint4_linear_221_1494)"/>
<path d="M87.5875 178.044L50.6489 191.727C50.4545 191.799 50.349 192.005 50.4133 192.187L52.3201 197.58C52.3844 197.761 52.5941 197.85 52.7885 197.778L89.7271 184.095C89.9215 184.023 90.027 183.817 89.9627 183.635L88.0559 178.243C87.9916 178.061 87.7819 177.972 87.5875 178.044Z" fill="url(#paint5_linear_221_1494)"/>
<path d="M92.5714 191.812L55.6328 205.495C55.4384 205.567 55.3329 205.773 55.3972 205.955L57.304 211.347C57.3683 211.529 57.578 211.618 57.7724 211.546L94.711 197.863C94.9054 197.791 95.0109 197.585 94.9466 197.403L93.0398 192.011C92.9755 191.829 92.7658 191.74 92.5714 191.812Z" fill="url(#paint6_linear_221_1494)"/>
<path d="M95.0836 198.753L58.145 212.436C57.9506 212.508 57.8451 212.714 57.9094 212.896L59.8162 218.288C59.8805 218.47 60.0902 218.559 60.2846 218.487L97.2232 204.804C97.4176 204.732 97.5231 204.526 97.4588 204.344L95.552 198.952C95.4877 198.77 95.278 198.681 95.0836 198.753Z" fill="url(#paint7_linear_221_1494)"/>
<path d="M97.5963 205.694L60.6577 219.377C60.4633 219.449 60.3578 219.655 60.4221 219.837L62.3289 225.23C62.3932 225.411 62.6029 225.5 62.7973 225.428L99.7359 211.745C99.9303 211.673 100.036 211.467 99.9715 211.285L98.0647 205.893C98.0004 205.711 97.7907 205.622 97.5963 205.694Z" fill="url(#paint8_linear_221_1494)"/>
<path d="M100.033 212.426L63.0947 226.11C62.9003 226.182 62.7948 226.388 62.8591 226.569L64.7659 231.962C64.8302 232.144 65.0399 232.233 65.2343 232.161L102.173 218.477C102.367 218.405 102.473 218.199 102.409 218.018L100.502 212.625C100.437 212.443 100.228 212.354 100.033 212.426Z" fill="url(#paint9_linear_221_1494)"/>
<path d="M102.471 219.159L65.5322 232.843C65.3378 232.915 65.2323 233.12 65.2966 233.302L67.2034 238.695C67.2677 238.877 67.4774 238.966 67.6718 238.894L104.61 225.21C104.805 225.138 104.91 224.932 104.846 224.75L102.939 219.358C102.875 219.176 102.665 219.087 102.471 219.159Z" fill="url(#paint10_linear_221_1494)"/>
<path d="M133.743 183.721L96.8046 197.405C96.6102 197.477 96.5048 197.683 96.569 197.864L98.4759 203.257C98.5401 203.439 98.7499 203.528 98.9443 203.456L135.883 189.772C136.077 189.7 136.183 189.494 136.118 189.313L134.212 183.92C134.147 183.738 133.938 183.649 133.743 183.721Z" fill="url(#paint11_linear_221_1494)"/>
<path d="M136.256 190.662L99.3173 204.346C99.1229 204.418 99.0174 204.624 99.0817 204.805L100.989 210.198C101.053 210.38 101.263 210.469 101.457 210.397L138.396 196.713C138.59 196.641 138.695 196.435 138.631 196.254L136.724 190.861C136.66 190.679 136.45 190.59 136.256 190.662Z" fill="url(#paint12_linear_221_1494)"/>
<path d="M138.693 197.395L101.754 211.078C101.56 211.15 101.454 211.356 101.519 211.538L103.426 216.93C103.49 217.112 103.7 217.201 103.894 217.129L140.833 203.446C141.027 203.374 141.132 203.168 141.068 202.986L139.161 197.593C139.097 197.412 138.887 197.323 138.693 197.395Z" fill="url(#paint13_linear_221_1494)"/>
<path d="M141.13 204.128L104.192 217.811C103.997 217.883 103.892 218.089 103.956 218.271L105.863 223.663C105.927 223.845 106.137 223.934 106.331 223.862L143.27 210.178C143.464 210.106 143.57 209.901 143.506 209.719L141.599 204.326C141.535 204.145 141.325 204.056 141.13 204.128Z" fill="url(#paint14_linear_221_1494)"/>
<g filter="url(#filter0_d_221_1494)">
<rect x="158.548" y="23.8596" width="90.1818" height="90.1818" rx="20.0404" transform="rotate(19.1261 158.548 23.8596)" fill="white" shape-rendering="crispEdges"/>
<path d="M166.787 50.2313C188.323 45.5494 198.487 49.3563 216.931 68.0488C214.824 81.6541 213.512 88.8241 206.812 100.837C194.064 108.45 186.816 107.996 173.546 99.3133L161.509 105.152L163.491 95.8263L155.418 83.0138C155.738 69.863 157.89 62.6538 166.787 50.2313Z" fill="#6F65EA"/>
<path d="M160.513 100.55C160.876 99.5022 161.239 98.4542 161.603 97.4063C161.625 97.366 161.639 97.3216 161.643 97.2758C161.647 97.2299 161.642 97.1836 161.628 97.1398C161.613 97.0959 161.59 97.0554 161.559 97.0208C161.528 96.9861 161.491 96.9581 161.448 96.9384C159.081 95.2906 157.115 93.1362 155.698 90.6358C154.676 88.7825 153.989 86.7678 153.667 84.6832C153.236 81.6834 153.313 78.6362 153.896 75.668C154.633 71.9468 155.705 68.3007 157.1 64.7734C157.712 63.1159 158.371 61.4956 159.141 59.8929C160.547 56.8269 162.432 54.0027 164.727 51.5241C167.555 48.4788 171.426 46.5873 175.594 46.2142C178.435 45.9534 181.3 46.0371 184.126 46.4637C186.898 46.8782 189.637 47.4925 192.321 48.3017C194.736 49.0456 197.112 49.9087 199.441 50.8879C202.802 52.2128 205.986 53.9435 208.924 56.0408C211.109 57.5739 213.053 59.4209 214.692 61.5206C216.265 63.6334 217.273 66.1054 217.62 68.7038C218.035 71.7416 217.964 74.8222 217.412 77.8322C217.108 79.6277 216.701 81.4041 216.194 83.1526C215.58 85.3249 214.824 87.4585 214.008 89.55C213.191 91.6414 212.296 93.6363 211.312 95.6219C209.898 98.6237 207.883 101.306 205.39 103.507C202.179 106.272 198.052 107.77 193.787 107.718C190.859 107.717 187.936 107.426 185.063 106.849C182.96 106.428 180.879 105.929 178.83 105.309C177.258 104.843 175.718 104.288 174.179 103.728C173.302 103.424 172.46 103.036 171.614 102.658C171.534 102.612 171.442 102.591 171.351 102.597C171.259 102.603 171.171 102.636 171.098 102.691C168.609 104.176 166.072 105.58 163.524 106.97C163.059 107.224 162.559 107.409 162.04 107.518C161.695 107.604 161.333 107.607 160.985 107.528C160.637 107.45 160.312 107.291 160.036 107.065C159.761 106.839 159.542 106.552 159.398 106.228C159.254 105.903 159.188 105.55 159.207 105.197C159.222 104.563 159.338 103.937 159.55 103.34C159.871 102.4 160.192 101.475 160.513 100.55ZM161.264 105.268L161.562 105.137L167.086 102.129C169.212 100.971 171.337 99.8115 173.46 98.6497C173.572 98.5726 173.702 98.5262 173.838 98.5154C173.973 98.5046 174.11 98.5298 174.233 98.5883C174.737 98.8215 175.252 99.0216 175.778 99.209C177.598 99.8403 179.418 100.472 181.283 100.975C182.98 101.42 184.697 101.792 186.424 102.104C188.293 102.412 190.177 102.62 192.067 102.728C196.253 103.037 199.975 101.884 203.063 98.9978C204.916 97.2073 206.422 95.0939 207.506 92.7616C208.588 90.584 209.557 88.3527 210.41 86.0763C211.495 83.2215 212.297 80.2668 212.804 77.2542C213.186 75.0767 213.285 72.8578 213.097 70.6519C212.837 67.9055 211.985 65.4108 210.061 63.3304C207.11 60.1399 203.491 57.918 199.606 56.0766C198.504 55.5563 197.382 55.0929 196.247 54.6515C193.935 53.715 191.572 52.9096 189.169 52.2392C187.434 51.7768 185.673 51.418 183.896 51.165C181.295 50.7578 178.65 50.7355 176.047 51.099C174.542 51.2956 173.084 51.7437 171.734 52.4242C169.503 53.6488 167.585 55.361 166.123 57.4321C164.406 59.8391 163.015 62.4607 161.986 65.2301C160.864 67.9672 159.929 70.7772 159.187 73.6409C158.752 75.3472 158.462 77.0879 158.322 78.8443C158.073 81.5711 158.472 84.3218 159.486 86.8763C160.621 89.5174 162.483 91.7912 164.858 93.4354C165.154 93.6496 165.263 93.8149 165.135 94.1848C164.632 95.5405 164.188 96.9162 163.714 98.2818L161.264 105.268Z" fill="#E4EBFE"/>
<path d="M172.601 61.7512C172.927 60.7011 173.759 60.1448 174.684 59.7059C175.893 59.1587 177.159 58.7446 178.461 58.4711C179.056 58.3416 179.679 58.4298 180.217 58.7196C180.754 59.0094 181.169 59.4813 181.385 60.0485C182.218 61.8564 182.872 63.7394 183.337 65.6709C183.592 66.5557 183.697 67.4755 183.649 68.3927C183.632 68.7514 183.519 69.0985 183.32 69.3979C183.122 69.6972 182.846 69.9379 182.522 70.0949C181.783 70.4403 181.021 70.7351 180.241 70.9773C179.842 71.1157 179.494 71.3676 179.24 71.7017C178.986 72.0357 178.837 72.4372 178.811 72.8561C178.573 74.7819 178.868 76.7391 179.665 78.5176C180.556 80.9023 182.03 83.033 183.955 84.7171C184.408 85.188 185.009 85.492 185.658 85.5786C186.021 85.604 186.382 85.5155 186.69 85.3256C187.171 85.0199 187.677 84.7383 188.135 84.3925C188.721 83.9663 189.454 83.7852 190.176 83.8878C190.898 83.9904 191.553 84.3686 192.001 84.9418C193.302 86.4375 194.46 88.0486 195.462 89.7544C195.699 90.1552 195.953 90.5515 196.188 90.957C196.481 91.3942 196.622 91.9137 196.589 92.4358C196.557 92.958 196.352 93.454 196.007 93.8477C195.444 94.5158 194.765 95.079 194.003 95.5113C192.999 96.2106 191.86 96.6979 190.657 96.9433C190.083 97.0552 189.49 97.0322 188.926 96.876C188.361 96.7199 187.84 96.435 187.405 96.0441C184.065 93.1555 181.175 89.7916 178.83 86.0635C176.551 82.3734 174.828 78.3753 173.715 74.1965C172.763 70.7264 172.289 67.1471 172.307 63.5565C172.325 63.1278 172.366 62.7004 172.429 62.2761C172.468 62.0956 172.526 61.9197 172.601 61.7512V61.7512Z" fill="white"/>
<path d="M190.888 62.4395C194.11 63.6233 196.818 65.8889 198.54 68.8412C200.262 71.7935 200.889 75.2453 200.311 78.5948C200.122 79.8196 199.829 81.0259 199.436 82.2011C199.341 82.4762 199.2 82.6504 198.893 82.5759C198.586 82.5013 198.597 82.2234 198.684 81.9721C199.55 79.6198 199.873 77.1018 199.63 74.6027C199.41 72.5421 198.714 70.5567 197.596 68.8009C196.479 67.0451 194.97 65.5662 193.186 64.4794C192.248 63.8921 191.247 63.4096 190.202 63.0409C190.1 63.0073 190.003 62.9592 189.914 62.8983C189.838 62.8459 189.786 62.7667 189.768 62.6772C189.75 62.5877 189.767 62.495 189.817 62.4186C189.831 62.3791 189.854 62.343 189.882 62.3122C189.911 62.2815 189.945 62.2567 189.984 62.2394C190.022 62.2221 190.064 62.2125 190.106 62.2114C190.149 62.2102 190.191 62.2174 190.23 62.2325C190.456 62.2788 190.673 62.3647 190.888 62.4395Z" fill="white"/>
<path d="M195.676 78.507C196.116 77.1841 196.238 75.7751 196.03 74.3931C195.823 73.0111 195.292 71.6946 194.48 70.5492C193.525 69.2368 192.249 68.1856 190.774 67.495C190.527 67.3721 190.273 67.2681 190.02 67.1483C189.766 67.0285 189.646 66.8646 189.762 66.6074C189.878 66.3501 190.079 66.3134 190.359 66.4321C194.515 68.1599 197.303 71.7882 196.88 76.5978C196.787 77.5214 196.585 78.4303 196.279 79.3058C196.251 79.3864 196.223 79.467 196.196 79.5429C196.114 79.78 195.907 79.8833 195.674 79.7972C195.622 79.7774 195.575 79.7475 195.536 79.7092C195.496 79.6709 195.465 79.625 195.444 79.5744C195.423 79.5239 195.412 79.4696 195.413 79.415C195.413 79.3603 195.425 79.3065 195.448 79.2567C195.487 79.0206 195.575 78.7963 195.676 78.507Z" fill="white"/>
<path d="M190.072 70.6456C192.345 71.6095 193.578 73.3012 193.173 75.9073C193.118 76.2401 193.047 76.5699 192.959 76.8955C192.87 77.1516 192.737 77.3498 192.455 77.2518C192.172 77.1538 192.142 76.9309 192.231 76.643C192.554 75.7023 192.58 74.6844 192.304 73.7253C191.975 72.8292 191.313 72.0902 190.455 71.6604C190.267 71.5534 190.072 71.4576 189.873 71.3735C189.538 71.2573 189.408 71.0265 189.54 70.7854C189.672 70.5443 189.89 70.5666 190.072 70.6456Z" fill="white"/>
<rect x="158.934" y="24.6564" width="88.9293" height="88.9293" rx="19.4141" transform="rotate(19.1261 158.934 24.6564)" stroke="#E9F0FF" stroke-width="1.25253" shape-rendering="crispEdges"/>
</g>
<defs>
<filter id="filter0_d_221_1494" x="101.945" y="12.805" width="168.861" height="168.861" filterUnits="userSpaceOnUse" color-interpolation-filters="sRGB">
<feFlood flood-opacity="0" result="BackgroundImageFix"/>
<feColorMatrix in="SourceAlpha" type="matrix" values="0 0 0 0 0 0 0 0 0 0 0 0 0 0 0 0 0 0 127 0" result="hardAlpha"/>
<feOffset dy="16"/>
<feGaussianBlur stdDeviation="13.5273"/>
<feComposite in2="hardAlpha" operator="out"/>
<feColorMatrix type="matrix" values="0 0 0 0 0.56298 0 0 0 0 0.396078 0 0 0 0 0.917647 0 0 0 0.32 0"/>
<feBlend mode="normal" in2="BackgroundImageFix" result="effect1_dropShadow_221_1494"/>
<feBlend mode="normal" in="SourceGraphic" in2="effect1_dropShadow_221_1494" result="shape"/>
</filter>
<linearGradient id="paint0_linear_221_1494" x1="272.274" y1="213.939" x2="59.1431" y2="77.3628" gradientUnits="userSpaceOnUse">
<stop stop-color="#DAE3FE"/>
<stop offset="1" stop-color="#E9EFFD"/>
</linearGradient>
<linearGradient id="paint1_linear_221_1494" x1="65.6442" y1="141.855" x2="179.37" y2="102.346" gradientUnits="userSpaceOnUse">
<stop stop-color="#09005D"/>
<stop offset="1" stop-color="#1A0F91"/>
</linearGradient>
<linearGradient id="paint2_linear_221_1494" x1="80.7591" y1="165.899" x2="98.4245" y2="258.216" gradientUnits="userSpaceOnUse">
<stop stop-color="#50E7B7"/>
<stop offset="1" stop-color="#323992"/>
</linearGradient>
<linearGradient id="paint3_linear_221_1494" x1="85.9029" y1="164.374" x2="81.2266" y2="259.58" gradientUnits="userSpaceOnUse">
<stop stop-color="#50E7B7"/>
<stop offset="1" stop-color="#323992"/>
</linearGradient>
<linearGradient id="paint4_linear_221_1494" x1="73.4313" y1="33.9606" x2="76.5922" y2="96.1729" gradientUnits="userSpaceOnUse">
<stop stop-color="#FF928E"/>
<stop offset="1" stop-color="#FE7062"/>
</linearGradient>
<linearGradient id="paint5_linear_221_1494" x1="70.9286" y1="33.8307" x2="74.0895" y2="96.0428" gradientUnits="userSpaceOnUse">
<stop stop-color="#FF928E"/>
<stop offset="1" stop-color="#FE7062"/>
</linearGradient>
<linearGradient id="paint6_linear_221_1494" x1="75.9773" y1="34.0927" x2="79.1382" y2="96.305" gradientUnits="userSpaceOnUse">
<stop stop-color="#FF928E"/>
<stop offset="1" stop-color="#FE7062"/>
</linearGradient>
<linearGradient id="paint7_linear_221_1494" x1="78.5225" y1="34.2252" x2="81.6834" y2="96.4373" gradientUnits="userSpaceOnUse">
<stop stop-color="#FF928E"/>
<stop offset="1" stop-color="#FE7062"/>
</linearGradient>
<linearGradient id="paint8_linear_221_1494" x1="81.068" y1="34.3572" x2="84.2289" y2="96.5693" gradientUnits="userSpaceOnUse">
<stop stop-color="#FF928E"/>
<stop offset="1" stop-color="#FE7062"/>
</linearGradient>
<linearGradient id="paint9_linear_221_1494" x1="83.5371" y1="34.4855" x2="86.698" y2="96.6976" gradientUnits="userSpaceOnUse">
<stop stop-color="#FF928E"/>
<stop offset="1" stop-color="#FE7062"/>
</linearGradient>
<linearGradient id="paint10_linear_221_1494" x1="86.0055" y1="34.613" x2="89.1666" y2="96.8259" gradientUnits="userSpaceOnUse">
<stop stop-color="#FF928E"/>
<stop offset="1" stop-color="#FE7062"/>
</linearGradient>
<linearGradient id="paint11_linear_221_1494" x1="117.116" y1="32.9357" x2="120.276" y2="95.1478" gradientUnits="userSpaceOnUse">
<stop stop-color="#FF928E"/>
<stop offset="1" stop-color="#FE7062"/>
</linearGradient>
<linearGradient id="paint12_linear_221_1494" x1="119.661" y1="33.0677" x2="122.822" y2="95.2798" gradientUnits="userSpaceOnUse">
<stop stop-color="#FF928E"/>
<stop offset="1" stop-color="#FE7062"/>
</linearGradient>
<linearGradient id="paint13_linear_221_1494" x1="122.13" y1="33.196" x2="125.291" y2="95.4081" gradientUnits="userSpaceOnUse">
<stop stop-color="#FF928E"/>
<stop offset="1" stop-color="#FE7062"/>
</linearGradient>
<linearGradient id="paint14_linear_221_1494" x1="124.6" y1="33.3243" x2="127.76" y2="95.5364" gradientUnits="userSpaceOnUse">
<stop stop-color="#FF928E"/>
<stop offset="1" stop-color="#FE7062"/>
</linearGradient>
</defs>
</svg>
