<svg width="52" height="52" viewBox="0 0 52 52" fill="none" xmlns="http://www.w3.org/2000/svg">
<rect width="52" height="52" rx="16" fill="#F3F7FF"/>
<path d="M26 41.25C34.4223 41.25 41.25 34.4223 41.25 26C41.25 17.5777 34.4223 10.75 26 10.75C17.5777 10.75 10.75 17.5777 10.75 26C10.75 34.4223 17.5777 41.25 26 41.25Z" fill="#34AADF" stroke="white" stroke-width="2.5"/>
<path d="M18.0014 25.6934C18.0014 25.6934 24.9362 22.743 27.3414 21.7041C28.2634 21.2886 31.3901 19.9589 31.3901 19.9589C31.3901 19.9589 32.8332 19.3771 32.7129 20.7899C32.6728 21.3717 32.3521 23.4079 32.0315 25.6103C31.5504 28.7269 31.0293 32.1343 31.0293 32.1343C31.0293 32.1343 30.9491 33.0901 30.2677 33.2563C29.5862 33.4225 28.4638 32.6745 28.2634 32.5083C28.103 32.3837 25.2569 30.5137 24.2147 29.5995C23.9341 29.3502 23.6134 28.8515 24.2547 28.2698C25.6979 26.8985 27.4215 25.1947 28.4638 24.1143C28.9448 23.6157 29.4258 22.4521 27.4215 23.865C24.5755 25.9012 21.7694 27.8127 21.7694 27.8127C21.7694 27.8127 21.128 28.2282 19.9255 27.8542C18.7229 27.4802 17.3198 26.9816 17.3198 26.9816C17.3198 26.9816 16.3578 26.3583 18.0014 25.6934Z" fill="white"/>
</svg>
