<svg width="52" height="52" fill="none" xmlns="http://www.w3.org/2000/svg"><rect width="52" height="52" rx="16" fill="#F3F7FF"/><path d="M13.88 16.328c7.954-4.854 12.542-4.74 22.5.171 1.043 5.727 1.512 8.773.5 14.5-4.038 4.808-6.997 5.63-13.5 4l-4 4-.5-4-5-4c-1.695-5.297-1.834-8.476 0-14.67z" fill="#6F65EA"/><path d="M18.344 37.299v-1.407a.139.139 0 0 0-.027-.11.142.142 0 0 0-.1-.055 8.137 8.137 0 0 1-3.17-1.722 7.615 7.615 0 0 1-1.636-2.096 11.378 11.378 0 0 1-1.157-3.633 26.572 26.572 0 0 1-.23-4.796 23.65 23.65 0 0 1 .14-2.233c.136-1.42.498-2.809 1.071-4.117a7.135 7.135 0 0 1 3.606-3.627 14.983 14.983 0 0 1 3.443-1.082 24.625 24.625 0 0 1 3.529-.401 32.31 32.31 0 0 1 3.202.046c1.526.064 3.038.314 4.502.745 1.085.31 2.118.779 3.064 1.39a6.536 6.536 0 0 1 2.165 2.464 12.222 12.222 0 0 1 1.18 3.676c.128.76.212 1.525.252 2.294.056.953.049 1.91.013 2.858-.037.949-.118 1.87-.236 2.8a10.306 10.306 0 0 1-1.274 3.97 7.378 7.378 0 0 1-4.051 3.29c-1.17.405-2.378.694-3.606.861-.898.123-1.799.212-2.703.248-.693.032-1.385.024-2.078.013-.392 0-.782-.038-1.172-.072a.2.2 0 0 0-.202.085 96.086 96.086 0 0 1-2.433 2.759 2.3 2.3 0 0 1-.516.424.97.97 0 0 1-1.235-.15.951.951 0 0 1-.219-.385 2.522 2.522 0 0 1-.12-.79c-.002-.42-.002-.833-.002-1.247zm.954 1.78.1-.093 1.79-1.967c.69-.757 1.378-1.515 2.065-2.273a.325.325 0 0 1 .3-.132c.234.024.467.032.703.034.815 0 1.63 0 2.444-.057.74-.057 1.477-.146 2.21-.26a22.62 22.62 0 0 0 2.341-.534c1.715-.456 3.042-1.432 3.876-3.013a8.86 8.86 0 0 0 .911-3.107c.13-1.02.209-2.045.234-3.073a19.694 19.694 0 0 0-.266-3.856 10.833 10.833 0 0 0-.797-2.678c-.485-1.061-1.17-1.94-2.228-2.504-1.62-.866-3.374-1.252-5.181-1.45a21.942 21.942 0 0 0-1.54-.104 28.053 28.053 0 0 0-3.161.018c-.757.055-1.51.156-2.256.3a11.33 11.33 0 0 0-3.144 1.062 5.687 5.687 0 0 0-1.54 1.127 7.062 7.062 0 0 0-1.547 2.778c-.353 1.2-.545 2.44-.573 3.688-.069 1.249-.053 2.5.047 3.748.063.742.188 1.477.376 2.198a7.389 7.389 0 0 0 1.577 3.048 6.494 6.494 0 0 0 3.055 1.876c.148.044.215.095.215.26-.013.612 0 1.223 0 1.834l-.011 3.13z" fill="#fff"/><path d="M17.798 20.125c-.015-.465.24-.803.548-1.106a7.73 7.73 0 0 1 1.338-1.017 1.08 1.08 0 0 1 1.387.225 12.9 12.9 0 0 1 1.559 1.976c.224.318.394.671.501 1.044a.84.84 0 0 1-.214.836c-.248.24-.511.464-.79.669a.904.904 0 0 0-.31.948c.172.803.56 1.544 1.125 2.144a6.514 6.514 0 0 0 2.573 1.882c.246.126.528.164.8.108a.733.733 0 0 0 .377-.244c.15-.189.313-.371.448-.573a1.193 1.193 0 0 1 1.62-.316c.727.418 1.413.9 2.05 1.443.15.128.307.25.457.38a1 1 0 0 1 .328 1.18 3.123 3.123 0 0 1-.57.942c-.305.419-.692.771-1.139 1.036a1.597 1.597 0 0 1-1.423.091 18.848 18.848 0 0 1-4.809-2.799 18.716 18.716 0 0 1-3.687-4.032 16.687 16.687 0 0 1-2.037-4.056 5.123 5.123 0 0 1-.128-.528 1.117 1.117 0 0 1-.004-.233zM25.199 17.866a6.234 6.234 0 0 1 3.944 1.498 6.12 6.12 0 0 1 2.058 3.65c.094.517.144 1.039.15 1.563 0 .123-.032.212-.165.225-.133.012-.167-.1-.167-.212.02-1.06-.2-2.11-.643-3.075a5.694 5.694 0 0 0-1.616-2.037 5.768 5.768 0 0 0-2.36-1.115 6.385 6.385 0 0 0-1.392-.161.478.478 0 0 1-.135-.017.15.15 0 0 1-.105-.178.13.13 0 0 1 .042-.095.138.138 0 0 1 .097-.037c.097-.013.195-.009.292-.009z" fill="#fff"/><path d="M29.337 23.622a3.743 3.743 0 0 0-.428-1.693 3.785 3.785 0 0 0-1.152-1.32 4.077 4.077 0 0 0-1.903-.707c-.116-.015-.232-.022-.35-.034-.118-.013-.189-.062-.178-.18.011-.12.086-.162.215-.153 1.899.114 3.515 1.177 4.013 3.157.09.382.136.773.135 1.165v.106c0 .107-.069.177-.174.174a.174.174 0 0 1-.123-.057.17.17 0 0 1-.042-.127c-.017-.1-.013-.202-.013-.331z" fill="#fff"/><path d="M26.01 21.258c1.041.07 1.768.575 1.968 1.672.024.14.04.282.051.424 0 .115-.026.213-.152.213-.127 0-.17-.085-.174-.213a2.05 2.05 0 0 0-.375-1.175 1.59 1.59 0 0 0-1.025-.57 2.329 2.329 0 0 0-.272-.033c-.15 0-.234-.074-.214-.189.019-.115.109-.136.193-.13z" fill="#fff"/></svg>