<svg width="52" height="52" fill="none" xmlns="http://www.w3.org/2000/svg"><rect width="52" height="52" rx="16" fill="#F3F7FF"/><g clip-path="url(#a)"><path d="m38.707 35.916-1.202.343 1.202-.343zm0 0-1.04-3.642a13.245 13.245 0 1 0-5.383 5.383l3.642 1.04a2.25 2.25 0 0 0 2.781-2.781z" fill="#00A49A" stroke="#fff" stroke-width="2.5" stroke-linecap="round" stroke-linejoin="round"/><path d="M20.133 28.112h1.84V29h-2.96v-5.584h1.12v4.696zm3.351-4.696V29h-1.12v-5.584h1.12zM29.047 29h-1.12l-2.536-3.832V29h-1.12v-5.592h1.12l2.536 3.84v-3.84h1.12V29zm1.907-4.68v1.4h1.88v.888h-1.88v1.48h2.12V29h-3.24v-5.592h3.24v.912h-2.12z" fill="#fff"/></g><defs><clipPath id="a"><path fill="#fff" transform="translate(12 12)" d="M0 0h28v28H0z"/></clipPath></defs></svg>