<svg width="439" height="65" viewBox="0 0 439 65" fill="none" xmlns="http://www.w3.org/2000/svg">
<path d="M146.817 11.8829C162.965 11.8829 167.002 18.436 167.002 27.2046C167.002 36.5446 162.965 43.1508 146.817 43.1508H135.662C135.291 43.1508 134.987 43.4525 134.987 43.8263V52.4972C134.987 52.869 134.686 53.1727 134.313 53.1727H121.699C121.317 53.1727 121.014 52.8562 121.028 52.4739C121.561 39.1574 121.561 25.843 121.028 12.5265C121.014 12.1441 121.317 11.8276 121.699 11.8276H134.987L146.817 11.8829ZM142.836 32.1561C151.994 32.1561 154.151 31.3021 154.151 27.6018C154.151 23.9015 152.221 23.1602 142.836 23.1602H135.662C135.291 23.1602 134.987 23.4618 134.987 23.8356V31.4827C134.987 31.8544 135.288 32.1582 135.662 32.1582H142.836V32.1561Z" fill="#09005D"/>
<path d="M186.446 53.1727H174.393C174.018 53.1727 173.717 52.8711 173.719 52.4972C173.78 45.6531 173.884 37.8383 173.884 30.3951C173.884 23.3577 173.78 18.8141 173.719 12.5137C173.715 12.1378 174.018 11.8276 174.393 11.8276H186.45C186.827 11.8276 187.131 12.142 187.122 12.5201C187.014 18.7227 186.967 23.4724 187.073 30.3951C186.965 37.7193 186.963 45.736 187.118 52.4888C187.126 52.8669 186.823 53.1727 186.446 53.1727V53.1727Z" fill="#09005D"/>
<path d="M228.075 53.1384C223.882 52.9536 222.168 52.9557 217.91 53.1448C217.577 53.1597 217.28 52.9281 217.214 52.601L215.808 45.4574C215.774 45.2853 215.536 45.2768 215.483 45.4425C213.575 51.3499 209.554 53.7417 205.104 53.7417C198.053 53.7417 194.132 48.6734 194.132 42.4092C194.132 34.7642 194.233 28.3747 193.892 22.7923C193.869 22.4036 194.174 22.0807 194.562 22.0807H205.942C206.324 22.0807 206.629 22.4015 206.614 22.7838C206.402 28.1049 206.301 33.1945 206.301 38.6536C206.301 42.0672 208.175 44.1213 210.621 44.1213C212.894 44.1213 214.945 42.0119 215.344 38.2543C215.452 32.9119 215.562 29.4878 215.261 22.7881C215.244 22.4036 215.549 22.0786 215.933 22.0786H228.108C228.494 22.0786 228.798 22.3994 228.779 22.786C228.261 32.5657 228.261 42.5472 228.779 52.4311C228.8 52.8283 228.475 53.1554 228.079 53.1384H228.075Z" fill="#09005D"/>
<path d="M280.019 53.1725C279.63 53.1725 279.325 52.8411 279.346 52.4524C279.656 47.2291 279.756 43.1867 279.756 37.7403C279.756 34.3225 277.881 32.2727 275.094 32.2727C272.71 32.2727 270.375 34.3225 270.375 38.9362V38.881C270.375 43.9344 270.375 48.4292 270.613 52.463C270.636 52.8496 270.331 53.1725 269.943 53.1725H258.567C258.185 53.1725 257.88 52.8496 257.895 52.4652C258.103 47.2354 258.209 43.191 258.209 37.7382C258.209 34.3204 256.334 32.2706 253.884 32.2706C251.435 32.2706 249.282 34.5477 248.996 38.5348C248.89 43.0317 248.828 46.4197 249.081 52.463C249.098 52.8475 248.792 53.1704 248.408 53.1704H236.231C235.845 53.1704 235.542 52.8496 235.561 52.463C236.074 42.6833 236.074 32.7018 235.561 22.8179C235.54 22.4207 235.864 22.0936 236.261 22.1106C240.453 22.2954 242.167 22.2933 246.423 22.1042C246.754 22.0893 247.051 22.3188 247.117 22.6438L248.578 29.8532C248.612 30.0253 248.85 30.0317 248.903 29.866C250.818 23.9013 254.949 21.5073 259.4 21.5073C265.247 21.5073 268.94 24.9761 270.028 29.747C270.066 29.9127 270.284 29.9276 270.344 29.7683C272.22 24.6894 276.471 21.5094 281.518 21.5094C288.343 21.5094 292.436 26.4057 292.436 34.3777C292.436 40.0111 292.334 46.8531 292.527 52.48C292.54 52.8624 292.236 53.1725 291.855 53.1725H280.016H280.019Z" fill="#09005D"/>
<path d="M297.436 47.773L302.615 40.7122C302.829 40.4191 303.23 40.3575 303.534 40.555C307.334 43.0361 312.746 44.1768 315.679 44.1768C319.202 44.1768 321.021 43.0913 321.021 41.6129C321.021 40.3617 320.054 39.6799 318.462 39.6799C315.734 39.6799 314.197 40.1897 312.212 40.1897C304.138 40.1897 297.822 39.1085 297.822 32.0477C297.822 25.5009 303.966 21.5117 316.415 21.5117C321.692 21.5117 328.521 22.8627 332.987 26.1679C333.313 26.408 333.337 26.8902 333.051 27.179L327.399 32.8931C327.191 33.1034 326.868 33.148 326.608 33.012C322.262 30.754 318.746 30.1104 315.338 30.1104C312.666 30.1104 310.505 31.3679 310.505 32.7295C310.505 33.815 311.357 34.4416 312.666 34.4416C314.313 34.4416 316.019 33.9828 317.781 33.9828C326.48 33.9828 333.929 34.8962 333.929 42.0696C333.929 50.6725 326.423 53.7462 315.961 53.7462C310.121 53.7462 303.483 52.7839 297.593 48.7352C297.282 48.5207 297.212 48.081 297.436 47.7751V47.773Z" fill="#09005D"/>
<path d="M382.897 53.1725C382.509 53.1725 382.204 52.8411 382.225 52.4524C382.535 47.2291 382.634 43.1867 382.634 37.7403C382.634 34.3225 380.759 32.2727 377.973 32.2727C375.589 32.2727 373.254 34.3225 373.254 38.9362V38.881C373.254 43.9344 373.254 48.4292 373.492 52.463C373.515 52.8496 373.21 53.1725 372.821 53.1725H361.446C361.064 53.1725 360.758 52.8496 360.773 52.4652C360.981 47.2354 361.087 43.191 361.087 37.7382C361.087 34.3204 359.212 32.2706 356.763 32.2706C354.313 32.2706 352.161 34.5477 351.875 38.5348C351.769 43.0317 351.707 46.4197 351.959 52.463C351.976 52.8475 351.671 53.1704 351.287 53.1704H339.11C338.724 53.1704 338.42 52.8496 338.439 52.463C338.953 42.6833 338.953 32.7018 338.439 22.8179C338.418 22.4207 338.743 22.0936 339.139 22.1106C343.332 22.2954 345.046 22.2933 349.302 22.1042C349.633 22.0893 349.93 22.3188 349.996 22.6438L351.457 29.8532C351.491 30.0253 351.728 30.0317 351.781 29.866C353.696 23.9013 357.828 21.5073 362.279 21.5073C368.126 21.5073 371.818 24.9761 372.906 29.747C372.944 29.9127 373.163 29.9276 373.222 29.7683C375.099 24.6894 379.349 21.5094 384.397 21.5094C391.221 21.5094 395.314 26.4057 395.314 34.3777C395.314 40.0111 395.213 46.8531 395.406 52.48C395.418 52.8624 395.115 53.1725 394.733 53.1725H382.895H382.897Z" fill="#09005D"/>
<path d="M400.317 47.773L405.496 40.7122C405.71 40.4191 406.111 40.3575 406.414 40.555C410.215 43.0361 415.627 44.1768 418.56 44.1768C422.083 44.1768 423.902 43.0913 423.902 41.6129C423.902 40.3617 422.935 39.6799 421.343 39.6799C418.615 39.6799 417.078 40.1897 415.093 40.1897C407.019 40.1897 400.703 39.1085 400.703 32.0477C400.703 25.5009 406.847 21.5117 419.296 21.5117C424.573 21.5117 431.401 22.8627 435.868 26.1679C436.194 26.408 436.218 26.8902 435.931 27.179L430.28 32.8931C430.072 33.1034 429.749 33.148 429.488 33.012C425.143 30.754 421.627 30.1104 418.219 30.1104C415.547 30.1104 413.385 31.3679 413.385 32.7295C413.385 33.815 414.238 34.4416 415.547 34.4416C417.194 34.4416 418.899 33.9828 420.662 33.9828C429.361 33.9828 436.809 34.8962 436.809 42.0696C436.809 50.6725 429.304 53.7462 418.842 53.7462C413.002 53.7462 406.364 52.7839 400.474 48.7352C400.162 48.5207 400.092 48.081 400.317 47.7751V47.773Z" fill="#09005D"/>
<path d="M79.4569 11.8273H32.6323C31.6101 11.8273 30.6642 12.3732 30.1531 13.2611L2.30313 61.5736C1.88534 62.3 2.69547 63.1115 3.42077 62.693L37.7497 42.8468C38.1124 42.6365 38.5174 43.0443 38.3096 43.4054L33.0607 52.5118C32.7468 53.0577 33.1392 53.7417 33.769 53.7417H79.8025C91.4774 53.7417 100.919 44.1638 100.724 32.4255C100.533 20.9337 90.9324 11.8252 79.459 11.8252L79.4569 11.8273ZM51.9123 37.4428C49.344 37.4428 47.2614 35.3569 47.2614 32.7845C47.2614 30.2121 49.344 28.1283 51.9123 28.1283C54.4805 28.1283 56.561 30.2142 56.561 32.7845C56.561 35.3548 54.4784 37.4428 51.9123 37.4428V37.4428ZM65.8563 37.4428C63.2881 37.4428 61.2055 35.3569 61.2055 32.7845C61.2055 30.2121 63.2881 28.1283 65.8563 28.1283C68.4246 28.1283 70.5051 30.2142 70.5051 32.7845C70.5051 35.3548 68.4225 37.4428 65.8563 37.4428V37.4428ZM79.8047 37.4386C77.2364 37.4386 75.1538 35.3526 75.1538 32.7824C75.1538 30.2121 77.2364 28.1241 79.8047 28.1241C82.3729 28.1241 84.4534 30.21 84.4534 32.7824C84.4534 35.3548 82.3708 37.4386 79.8047 37.4386Z" fill="url(#paint0_linear_211_1155)"/>
<defs>
<linearGradient id="paint0_linear_211_1155" x1="4.17577" y1="51.6111" x2="110.101" y2="14.5166" gradientUnits="userSpaceOnUse">
<stop stop-color="#18AFF2"/>
<stop offset="0.3" stop-color="#5E53D8"/>
<stop offset="0.7" stop-color="#E74296"/>
<stop offset="1" stop-color="#FD7642"/>
</linearGradient>
</defs>
</svg>
