<svg width="399" height="251" viewBox="0 0 399 251" fill="none" xmlns="http://www.w3.org/2000/svg">
<g clip-path="url(#clip0_25_192)">
<path d="M376.153 124.447C369.892 117.943 362.486 111.601 360.555 102.772C357.212 87.4947 371.502 74.4675 376.18 59.5444C379.412 49.2274 377.745 37.4796 371.767 28.4777C365.788 19.4757 355.62 13.3996 344.878 12.4124C326.394 10.7107 308.305 23.198 290.099 19.5826C275.525 16.6871 263.999 3.91295 249.2 2.54448C231.782 0.940802 217.335 15.3471 200.705 20.7729C180.814 27.2624 159.244 20.4807 139.694 13.0379C120.144 5.59502 99.5615 -2.71201 78.9468 0.851709C55.9985 4.811 36.7594 24.8623 33.6901 48.0033C30.6491 70.9376 56.162 89.346 34.4436 116.89C27.658 125.495 23.1455 137.476 26.1455 148.024C29.0585 158.276 41.4621 164.758 41.5528 175.415C41.6239 183.829 33.7114 190.525 33.0734 198.914C32.526 206.117 37.6943 212.774 44.041 216.186C50.3876 219.598 57.7563 220.434 64.9169 221.207L62.8073 223.483C98.8861 226.729 135.182 226.008 171.399 225.281L342.729 221.849C348.594 221.731 354.61 221.587 360.079 219.447C365.548 217.307 370.453 212.727 371.285 206.901C372.707 196.986 362.367 188.382 363.321 178.411C364.542 165.679 382.423 160.77 385.825 148.441C388.221 139.725 382.414 130.949 376.153 124.447Z" fill="url(#paint0_linear_25_192)"/>
<path d="M352.982 130.193C355.936 139.058 371.025 191.35 324.626 214.361C324.626 214.361 305.852 182.498 351.641 129.923C351.732 129.818 351.85 129.739 351.981 129.695C352.113 129.65 352.254 129.641 352.39 129.669C352.526 129.696 352.652 129.759 352.756 129.851C352.86 129.943 352.938 130.061 352.982 130.193Z" fill="#91B3FA"/>
<path d="M350.242 139.131C349.782 145.093 349.138 151.032 348.383 156.95C347.628 162.867 346.727 168.789 345.651 174.67C344.576 180.552 343.32 186.408 341.741 192.19C340.965 195.083 340.082 197.949 339.093 200.787C338.112 203.636 336.964 206.424 335.654 209.137C335.568 209.309 335.418 209.439 335.236 209.501C335.054 209.562 334.856 209.549 334.684 209.464C334.512 209.379 334.38 209.229 334.317 209.048C334.255 208.866 334.266 208.667 334.35 208.494C335.666 205.848 336.824 203.126 337.817 200.342C338.829 197.557 339.736 194.732 340.538 191.865C342.164 186.147 343.478 180.333 344.626 174.489C345.774 168.644 346.727 162.755 347.557 156.848C348.387 150.941 349.092 145.018 349.62 139.083C349.628 139.002 349.667 138.927 349.73 138.874C349.792 138.822 349.873 138.796 349.954 138.803C349.995 138.806 350.034 138.816 350.071 138.834C350.107 138.851 350.14 138.876 350.167 138.907C350.193 138.937 350.214 138.973 350.227 139.011C350.24 139.05 350.245 139.091 350.242 139.131Z" fill="#BDD0FB"/>
<path d="M380.289 140.168C380.283 139.971 380.213 139.781 380.089 139.628C379.964 139.476 379.792 139.369 379.601 139.324C379.409 139.28 379.208 139.3 379.029 139.383C378.85 139.465 378.704 139.605 378.613 139.78C374.587 147.747 363.374 168.306 350.487 177.839C329.515 193.359 311.956 221.851 319.852 239.968C319.852 239.968 381.974 240.813 380.289 140.168Z" fill="#BDD0FB"/>
<path d="M376.276 151.88C376.199 152.158 376.117 152.374 376.037 152.613L375.787 153.313L375.273 154.703C374.918 155.626 374.562 156.544 374.196 157.463C373.462 159.296 372.707 161.121 371.932 162.937C370.377 166.568 368.72 170.155 367.014 173.717C365.308 177.279 363.508 180.796 361.627 184.273C359.747 187.749 357.815 191.195 355.771 194.579C351.71 201.367 347.226 207.892 342.347 214.115C339.859 217.193 337.302 220.208 334.568 223.066C331.829 225.917 328.926 228.605 325.875 231.118C325.857 231.134 325.836 231.145 325.813 231.153C325.79 231.16 325.766 231.162 325.742 231.16C325.718 231.157 325.695 231.15 325.674 231.138C325.653 231.126 325.634 231.11 325.619 231.091C325.604 231.073 325.592 231.053 325.585 231.03C325.578 231.008 325.575 230.984 325.577 230.96C325.579 230.937 325.586 230.914 325.597 230.893C325.608 230.872 325.623 230.853 325.641 230.838C331.524 225.612 336.786 219.737 341.579 213.511C343.988 210.406 346.275 207.205 348.486 203.955C350.697 200.705 352.771 197.362 354.831 194.009C358.919 187.286 362.651 180.344 366.195 173.313C367.959 169.792 369.655 166.237 371.283 162.65C372.102 160.857 372.903 159.058 373.688 157.251L374.838 154.528L375.399 153.163L375.671 152.477C375.757 152.253 375.849 152.009 375.918 151.815L375.933 151.775C375.939 151.753 375.951 151.732 375.966 151.714C375.981 151.695 375.999 151.68 376.02 151.669C376.041 151.658 376.063 151.651 376.087 151.649C376.11 151.647 376.134 151.649 376.156 151.656C376.179 151.663 376.2 151.674 376.218 151.689C376.236 151.704 376.251 151.723 376.262 151.743C376.273 151.764 376.28 151.787 376.283 151.811C376.285 151.834 376.282 151.858 376.276 151.88Z" fill="url(#paint1_linear_25_192)"/>
<path d="M319.022 240.907C319.022 240.907 322.348 228.545 337.931 219.062C352.391 210.263 387.517 190.322 397.763 177.01C397.858 176.885 397.993 176.796 398.146 176.758C398.299 176.721 398.459 176.737 398.602 176.804C398.744 176.871 398.859 176.985 398.927 177.127C398.995 177.269 399.013 177.43 398.977 177.584C397.141 185.363 391.016 204.49 372.87 220.507C349.471 241.15 319.022 240.907 319.022 240.907Z" fill="#91B3FA"/>
<path d="M389.831 189.768C389.201 191.426 388.422 193.022 387.503 194.538C387.286 194.927 387.05 195.301 386.808 195.671L386.097 196.792C385.583 197.505 385.095 198.257 384.552 198.961C382.413 201.801 380.025 204.444 377.417 206.858C376.789 207.489 376.098 208.048 375.43 208.64C374.761 209.231 374.098 209.819 373.388 210.352L371.274 211.988C370.931 212.269 370.563 212.51 370.196 212.767L369.103 213.529L368.01 214.29L367.462 214.668L366.897 215.024L364.64 216.435C364.263 216.667 363.89 216.915 363.508 217.134L362.361 217.795L360.078 219.115C357.003 220.851 353.917 222.567 350.786 224.194C349.227 225.02 347.656 225.821 346.089 226.629L341.363 229.001C338.217 230.585 335.052 232.127 331.956 233.782C330.402 234.599 328.883 235.472 327.399 236.401C325.923 237.338 324.52 238.386 323.202 239.535C323.185 239.552 323.165 239.565 323.143 239.574C323.12 239.582 323.097 239.586 323.073 239.586C323.049 239.585 323.025 239.58 323.004 239.57C322.982 239.56 322.962 239.547 322.946 239.529C322.929 239.512 322.916 239.492 322.908 239.469C322.899 239.447 322.895 239.423 322.896 239.399C322.896 239.375 322.901 239.352 322.911 239.33C322.921 239.308 322.935 239.288 322.952 239.272C324.212 238.018 325.58 236.878 327.04 235.865C328.503 234.86 329.999 233.91 331.527 233.014C332.29 232.563 333.054 232.123 333.838 231.699C334.622 231.275 335.382 230.842 336.159 230.427C337.709 229.58 339.269 228.761 340.828 227.932C343.945 226.287 347.059 224.652 350.157 222.982C353.255 221.312 356.327 219.609 359.388 217.877L361.672 216.558C362.434 216.12 363.197 215.682 363.936 215.218L366.172 213.85L366.732 213.508L367.274 213.141L368.358 212.401C371.262 210.454 374.034 208.315 376.656 206.001C377.303 205.413 377.962 204.837 378.6 204.24L380.468 202.396C381.076 201.767 381.664 201.119 382.265 200.481C382.866 199.843 383.408 199.157 383.984 198.496C384.56 197.835 385.073 197.122 385.621 196.438L386.392 195.369C386.653 195.012 386.906 194.656 387.144 194.287C388.149 192.844 389.037 191.321 389.797 189.734C389.798 189.731 389.8 189.729 389.802 189.726C389.804 189.724 389.807 189.722 389.809 189.721C389.812 189.72 389.815 189.719 389.819 189.719C389.822 189.72 389.825 189.72 389.827 189.722C389.834 189.721 389.84 189.723 389.844 189.727C389.849 189.731 389.852 189.737 389.852 189.743C389.853 189.749 389.851 189.755 389.847 189.76C389.843 189.765 389.837 189.768 389.831 189.768Z" fill="#BDD0FB"/>
<path d="M47.0659 130.193C44.1121 139.058 29.023 191.35 75.4225 214.358C75.4225 214.358 94.1959 182.495 48.4078 129.919C48.316 129.814 48.1983 129.736 48.0665 129.692C47.9348 129.647 47.7937 129.639 47.6575 129.666C47.5214 129.694 47.3949 129.758 47.2911 129.85C47.1872 129.943 47.1095 130.061 47.0659 130.193Z" fill="#BDD0FB"/>
<path d="M50.4197 139.083C50.9529 145.019 51.6638 150.945 52.4831 156.848C53.3024 162.752 54.2728 168.639 55.4138 174.489C56.5548 180.339 57.8718 186.147 59.5016 191.865C60.3049 194.727 61.2119 197.553 62.2226 200.342C63.2161 203.126 64.374 205.848 65.6901 208.494C65.7372 208.579 65.7666 208.674 65.7766 208.771C65.7866 208.868 65.777 208.967 65.7483 209.06C65.7196 209.153 65.6724 209.24 65.6095 209.315C65.5467 209.39 65.4695 209.451 65.3825 209.495C65.2955 209.54 65.2005 209.566 65.1032 209.573C65.0059 209.579 64.9082 209.566 64.816 209.534C64.7238 209.502 64.639 209.452 64.5665 209.387C64.4941 209.321 64.4356 209.242 64.3944 209.153C63.0839 206.441 61.9355 203.652 60.9554 200.803C59.9637 197.968 59.081 195.102 58.3072 192.206C56.7361 186.424 55.4849 180.567 54.3972 174.686C53.3095 168.806 52.428 162.892 51.6655 156.966C50.9031 151.039 50.2668 145.1 49.8065 139.147C49.7997 139.066 49.8254 138.985 49.8781 138.922C49.9307 138.86 50.006 138.821 50.0873 138.814C50.1686 138.807 50.2493 138.833 50.3116 138.886C50.374 138.939 50.4128 139.014 50.4197 139.096V139.083Z" fill="url(#paint2_linear_25_192)"/>
<path d="M19.7597 140.168C19.7657 139.972 19.8365 139.783 19.9609 139.63C20.0853 139.478 20.2565 139.372 20.4476 139.328C20.6388 139.283 20.8392 139.303 21.0176 139.385C21.196 139.467 21.3424 139.606 21.4339 139.78C25.4613 147.746 36.6741 168.306 49.5594 177.839C70.542 193.359 88.0927 221.85 80.1962 239.968C80.1962 239.968 18.0749 240.813 19.7597 140.168Z" fill="#91B3FA"/>
<path d="M24.1285 151.815C24.1942 152.009 24.292 152.253 24.3773 152.477L24.6492 153.163L25.2108 154.528L26.3607 157.251C27.1427 159.06 27.9443 160.86 28.7654 162.65C30.3969 166.235 32.0931 169.789 33.8538 173.313C37.3994 180.344 41.1246 187.286 45.2177 194.009C47.2776 197.359 49.3517 200.703 51.5626 203.955C53.7735 207.207 56.0591 210.406 58.4673 213.511C63.266 219.737 68.525 225.612 74.4078 230.838C74.4262 230.854 74.4413 230.873 74.4522 230.894C74.4631 230.915 74.4696 230.939 74.4713 230.963C74.4729 230.987 74.4697 231.011 74.4619 231.033C74.454 231.056 74.4417 231.077 74.4256 231.095C74.4106 231.113 74.3922 231.128 74.3714 231.139C74.3505 231.15 74.3277 231.157 74.3042 231.159C74.2807 231.162 74.257 231.159 74.2346 231.152C74.2121 231.145 74.1912 231.133 74.1732 231.118C71.1219 228.606 68.2194 225.917 65.4805 223.066C62.747 220.215 60.1824 217.186 57.7013 214.115C52.8224 207.892 48.3389 201.367 44.2775 194.579C42.2336 191.194 40.3017 187.746 38.4214 184.273C36.541 180.8 34.7371 177.281 33.0344 173.717C31.3318 170.153 29.6718 166.568 28.1167 162.937C27.3442 161.119 26.5894 159.295 25.8524 157.463C25.497 156.544 25.1255 155.626 24.7754 154.703L24.2618 153.313L24.0112 152.613C23.9312 152.374 23.8494 152.158 23.7712 151.88C23.7643 151.858 23.762 151.834 23.7643 151.81C23.7666 151.787 23.7735 151.764 23.7846 151.743C23.7958 151.722 23.8109 151.703 23.8292 151.688C23.8475 151.673 23.8686 151.662 23.8912 151.655C23.9138 151.648 23.9376 151.646 23.9612 151.648C23.9847 151.65 24.0076 151.657 24.0285 151.668C24.0493 151.68 24.0678 151.695 24.0828 151.713C24.0979 151.732 24.1091 151.753 24.116 151.775L24.1285 151.815Z" fill="#BDD0FB"/>
<path d="M81.0246 240.907C81.0246 240.907 77.6993 228.545 62.1161 219.062C47.6561 210.263 12.5299 190.322 2.28385 177.01C2.18872 176.885 2.05353 176.796 1.90088 176.758C1.74824 176.721 1.58739 176.737 1.44524 176.804C1.3031 176.871 1.18826 176.985 1.11996 177.127C1.05165 177.269 1.034 177.43 1.06997 177.584C2.90412 185.363 9.03042 204.49 27.1765 220.507C50.578 241.15 81.0246 240.907 81.0246 240.907Z" fill="#BDD0FB"/>
<path d="M10.2603 189.754C11.0209 191.341 11.9083 192.863 12.9138 194.307C13.152 194.675 13.4043 195.034 13.6656 195.388L14.4369 196.457C14.9843 197.141 15.5122 197.842 16.0738 198.515C16.6354 199.189 17.1953 199.861 17.7925 200.5C18.3896 201.14 18.9815 201.787 19.5893 202.416L21.4572 204.26C22.0953 204.857 22.7546 205.432 23.4016 206.02C26.0239 208.335 28.796 210.473 31.6997 212.421L32.7838 213.16L33.3259 213.527L33.884 213.87L36.1216 215.238C36.8609 215.701 37.6234 216.14 38.3858 216.578L40.6679 217.897C43.7307 219.629 46.8084 221.33 49.9008 223.002C52.9986 224.671 56.1213 226.307 59.2298 227.952C60.7885 228.771 62.3489 229.591 63.8969 230.446C64.6754 230.861 65.4497 231.285 66.2199 231.718C66.9965 232.139 67.7608 232.583 68.5303 233.033C70.0564 233.924 71.5523 234.875 73.018 235.884C74.4778 236.897 75.8457 238.037 77.1057 239.291C77.1408 239.324 77.1614 239.37 77.1629 239.418C77.1644 239.467 77.1467 239.514 77.1137 239.549C77.0807 239.584 77.0351 239.605 76.987 239.606C76.9388 239.608 76.892 239.59 76.8569 239.557C75.5391 238.407 74.1363 237.36 72.6607 236.423C71.1749 235.494 69.6553 234.621 68.102 233.803C65.0077 232.148 61.8424 230.607 58.6966 229.023L53.9708 226.651C52.4033 225.842 50.8321 225.047 49.2735 224.215C46.1419 222.588 43.053 220.872 39.9818 219.137L37.6785 217.793L36.5321 217.132C36.15 216.913 35.7768 216.665 35.4 216.434L33.1428 215.022L32.5777 214.666L32.0303 214.288L30.9372 213.527L29.8442 212.765C29.4888 212.508 29.1084 212.268 28.7636 211.986L26.6646 210.345C25.9537 209.81 25.2997 209.206 24.6226 208.633C23.9454 208.059 23.2629 207.489 22.6355 206.851C20.0271 204.437 17.639 201.794 15.4998 198.954C14.9666 198.25 14.4689 197.507 13.9553 196.785L13.2444 195.664C13.0027 195.294 12.7645 194.919 12.5495 194.531C11.6304 193.015 10.8511 191.419 10.2212 189.761C10.2201 189.758 10.2196 189.755 10.2197 189.752C10.2199 189.749 10.2206 189.746 10.222 189.744C10.2233 189.741 10.2252 189.738 10.2275 189.737C10.2299 189.735 10.2326 189.733 10.2354 189.732C10.2385 189.732 10.2415 189.733 10.2444 189.734C10.2473 189.734 10.25 189.736 10.2523 189.738C10.2546 189.74 10.2565 189.742 10.2579 189.745C10.2593 189.748 10.2601 189.751 10.2603 189.754Z" fill="url(#paint3_linear_25_192)"/>
<path d="M134.576 76.8588H84.6823C83.7166 76.8564 82.7912 76.4701 82.1092 75.7847C81.4272 75.0992 81.0442 74.1706 81.0442 73.2024V40.6264C81.0445 39.6919 81.4016 38.793 82.0421 38.1141C82.6826 37.4352 83.5579 37.0277 84.4886 36.9754L136.3 34.0834C136.812 34.0551 137.324 34.1353 137.803 34.3186C138.281 34.502 138.716 34.7844 139.079 35.1475C139.442 35.5107 139.724 35.9463 139.907 36.4261C140.091 36.9059 140.172 37.4191 140.144 37.9322L138.219 73.3913C138.171 74.3271 137.766 75.2086 137.088 75.8537C136.41 76.4989 135.511 76.8587 134.576 76.8588Z" fill="url(#paint4_linear_25_192)"/>
<path d="M110.794 57.1977L138.068 34.4255C137.516 34.1574 136.904 34.0348 136.291 34.0691L84.4797 36.9789C83.621 37.0267 82.8069 37.3777 82.1816 37.9696L102.594 57.0017C104.81 59.0669 108.455 59.1577 110.794 57.1977Z" fill="url(#paint5_linear_25_192)"/>
<path opacity="0.74" d="M107.003 56.0752C105.606 56.0734 104.258 55.5595 103.212 54.6301L95.5219 47.8216C95.4683 47.7741 95.4246 47.7165 95.3933 47.652C95.3619 47.5876 95.3435 47.5176 95.3392 47.446C95.3348 47.3745 95.3445 47.3028 95.3678 47.235C95.3911 47.1672 95.4274 47.1046 95.4748 47.0509C95.5222 46.9972 95.5796 46.9534 95.6439 46.922C95.7082 46.8905 95.778 46.8721 95.8494 46.8677C95.9208 46.8633 95.9923 46.8731 96.0599 46.8964C96.1275 46.9198 96.1899 46.9562 96.2435 47.0037L103.934 53.8122C104.72 54.5136 105.722 54.9247 106.774 54.9775C107.825 55.0304 108.863 54.7217 109.715 54.1027L113.7 51.2303C113.818 51.1457 113.964 51.1115 114.107 51.1352C114.25 51.159 114.378 51.2387 114.462 51.3568C114.547 51.4749 114.581 51.6219 114.557 51.7652C114.534 51.9086 114.454 52.0366 114.336 52.1212L110.352 54.9882C109.377 55.6934 108.205 56.0736 107.003 56.0752Z" fill="white"/>
<path opacity="0.74" d="M93.0213 45.4267C92.8902 45.4256 92.7639 45.3768 92.6659 45.2895L91.6261 44.3683C91.5693 44.3217 91.5223 44.2641 91.4882 44.199C91.454 44.1338 91.4333 44.0624 91.4274 43.9891C91.4214 43.9157 91.4302 43.8419 91.4534 43.772C91.4765 43.7021 91.5135 43.6377 91.5621 43.5825C91.6107 43.5273 91.6699 43.4825 91.7361 43.4508C91.8024 43.4191 91.8743 43.4011 91.9477 43.398C92.0211 43.3948 92.0943 43.4065 92.163 43.4324C92.2318 43.4583 92.2946 43.4978 92.3477 43.5486L93.3821 44.4645C93.4647 44.5377 93.5233 44.6343 93.55 44.7416C93.5768 44.8488 93.5705 44.9617 93.532 45.0653C93.4936 45.1689 93.4247 45.2584 93.3344 45.3219C93.2442 45.3855 93.1369 45.4202 93.0266 45.4214L93.0213 45.4267Z" fill="white"/>
<path d="M78.8172 169.348C78.7697 169.349 78.7226 169.341 78.6784 169.324C78.6343 169.306 78.594 169.28 78.5601 169.247C78.5261 169.214 78.4991 169.174 78.4807 169.13C78.4623 169.086 78.4528 169.039 78.4528 168.992L78.2947 158.085C78.293 158.037 78.3009 157.989 78.318 157.945C78.3352 157.9 78.3611 157.859 78.3943 157.825C78.4274 157.79 78.4672 157.763 78.5111 157.744C78.5551 157.726 78.6024 157.716 78.6501 157.716C78.7444 157.716 78.8348 157.754 78.9014 157.82C78.9681 157.887 79.0056 157.978 79.0056 158.072L79.1655 168.979C79.1672 169.027 79.1592 169.075 79.1421 169.119C79.125 169.164 79.0991 169.205 79.0659 169.239C79.0327 169.274 78.993 169.301 78.949 169.32C78.9051 169.338 78.8578 169.348 78.8101 169.348H78.8172Z" fill="white"/>
<path d="M78.4244 142.624C78.3301 142.624 78.2397 142.586 78.173 142.519C78.1064 142.452 78.0689 142.362 78.0689 142.267L77.4504 100.497C77.4629 97.7083 78.3195 95.4792 79.9973 93.8666C83.0506 90.9354 87.828 91.0815 88.0306 91.0905L164.932 89.0181C164.98 89.0157 165.028 89.0232 165.073 89.04C165.119 89.0568 165.16 89.0827 165.195 89.116C165.23 89.1493 165.257 89.1895 165.276 89.2339C165.295 89.2783 165.305 89.3262 165.305 89.3745C165.307 89.4228 165.3 89.4711 165.283 89.5164C165.267 89.5617 165.241 89.6031 165.207 89.6381C165.174 89.6731 165.134 89.701 165.09 89.72C165.046 89.739 164.998 89.7488 164.95 89.7487L88.0288 91.8157C87.812 91.8157 83.3332 91.6695 80.5003 94.3922C78.97 95.8623 78.1898 97.9132 78.1773 100.492L78.7887 142.255C78.7904 142.303 78.7824 142.35 78.7653 142.395C78.7482 142.44 78.7223 142.48 78.6891 142.515C78.6559 142.549 78.6162 142.577 78.5722 142.595C78.5283 142.614 78.481 142.624 78.4333 142.624H78.4244Z" fill="#91B3FA"/>
<path d="M352.613 50.628H302.716C300.702 50.628 299.069 49.1294 299.069 47.2817V17.4836C299.069 15.7017 300.579 14.2424 302.513 14.1444L354.331 11.4948C356.501 11.3843 358.295 13.0272 358.176 15.0157L356.251 47.4634C356.146 49.2381 354.546 50.628 352.613 50.628Z" fill="url(#paint6_linear_25_192)"/>
<path d="M328.828 32.6472L356.102 11.8137C355.542 11.5702 354.934 11.461 354.324 11.4948L302.506 14.1444C301.661 14.1811 300.852 14.4997 300.208 15.0496L320.622 32.4601C322.843 34.3507 326.487 34.4344 328.828 32.6472Z" fill="url(#paint7_linear_25_192)"/>
<path opacity="0.74" d="M325.036 31.6137C323.659 31.6201 322.321 31.1535 321.246 30.2916L313.555 24.064C313.501 24.0234 313.456 23.9715 313.424 23.9119C313.391 23.8523 313.372 23.7864 313.368 23.7187C313.363 23.6509 313.373 23.5831 313.397 23.5196C313.421 23.4562 313.459 23.3988 313.507 23.3512C313.608 23.2512 313.742 23.1914 313.884 23.1832C314.025 23.175 314.165 23.2189 314.277 23.3067L321.967 29.5432C322.782 30.189 323.778 30.5621 324.815 30.6097C325.853 30.6574 326.879 30.3772 327.749 29.8087L331.733 27.1822C331.852 27.1043 331.995 27.0728 332.135 27.0938C332.276 27.1149 332.403 27.1869 332.494 27.2963C332.535 27.3487 332.565 27.4094 332.582 27.4743C332.598 27.5392 332.6 27.6069 332.588 27.6727C332.577 27.7386 332.551 27.8012 332.513 27.8564C332.476 27.9117 332.427 27.9582 332.37 27.993L328.385 30.6212C327.389 31.2724 326.225 31.6174 325.036 31.6137Z" fill="white"/>
<path opacity="0.74" d="M311.055 21.8723C310.926 21.872 310.8 21.828 310.699 21.7475L309.663 20.9083C309.609 20.8677 309.564 20.8158 309.532 20.7562C309.499 20.6966 309.48 20.6307 309.476 20.563C309.471 20.4953 309.481 20.4274 309.505 20.364C309.529 20.3005 309.567 20.2431 309.615 20.1955C309.716 20.0954 309.85 20.0357 309.992 20.0279C310.134 20.02 310.273 20.0644 310.385 20.1528L311.421 20.9903C311.475 21.0309 311.52 21.0827 311.552 21.1423C311.585 21.2019 311.604 21.2679 311.608 21.3356C311.613 21.4033 311.603 21.4712 311.579 21.5346C311.555 21.598 311.517 21.6555 311.469 21.703C311.415 21.7579 311.35 21.8012 311.279 21.8303C311.208 21.8594 311.132 21.8737 311.055 21.8723Z" fill="white"/>
<path d="M371.42 68.1152H339.214C338.905 68.115 338.598 68.0536 338.312 67.9347C338.027 67.8157 337.767 67.6414 337.549 67.4218C337.33 67.2022 337.157 66.9416 337.039 66.6549C336.921 66.3681 336.86 66.0609 336.861 65.7507V44.7247C336.861 44.1216 337.091 43.5413 337.505 43.1032C337.918 42.665 338.484 42.4024 339.084 42.3691L372.531 40.4999C372.862 40.4804 373.193 40.5311 373.503 40.6489C373.813 40.7666 374.095 40.9487 374.33 41.1833C374.565 41.4178 374.748 41.6994 374.866 42.0097C374.985 42.32 375.037 42.652 375.019 42.9839L373.775 65.8772C373.744 66.482 373.482 67.0516 373.044 67.4682C372.605 67.8848 372.024 68.1165 371.42 68.1152Z" fill="url(#paint8_linear_25_192)"/>
<path d="M356.07 55.4283L373.674 40.7297C373.318 40.5597 372.925 40.4825 372.531 40.5052L339.084 42.3744C338.53 42.4044 338.004 42.6305 337.6 43.0123L350.775 55.2982C351.499 55.9447 352.429 56.3126 353.399 56.3364C354.368 56.3602 355.315 56.0384 356.07 55.4283Z" fill="url(#paint9_linear_25_192)"/>
<path opacity="0.74" d="M353.622 54.7031C352.72 54.7017 351.85 54.3696 351.175 53.7694L346.215 49.3736C346.154 49.3092 346.119 49.2243 346.117 49.1355C346.115 49.0467 346.146 48.9604 346.204 48.8934C346.263 48.8265 346.344 48.7839 346.432 48.7738C346.52 48.7637 346.609 48.787 346.68 48.839L351.644 53.2331C352.152 53.6859 352.799 53.9514 353.478 53.9854C354.156 54.0194 354.826 53.82 355.377 53.4202L357.948 51.567C357.985 51.5311 358.029 51.5036 358.077 51.4863C358.125 51.469 358.176 51.4623 358.227 51.4668C358.278 51.4712 358.328 51.4866 358.372 51.512C358.417 51.5373 358.455 51.572 358.485 51.6136C358.515 51.6553 358.536 51.7029 358.546 51.7533C358.555 51.8037 358.554 51.8555 358.542 51.9054C358.53 51.9553 358.508 52.002 358.476 52.0423C358.444 52.0826 358.404 52.1156 358.359 52.139L355.784 53.9904C355.156 54.4498 354.4 54.6992 353.622 54.7031Z" fill="white"/>
<path opacity="0.74" d="M344.597 47.8269C344.511 47.8273 344.428 47.7955 344.364 47.7378L343.696 47.148C343.635 47.0836 343.6 46.9987 343.598 46.9099C343.596 46.8211 343.628 46.7348 343.686 46.6679C343.744 46.6009 343.825 46.5583 343.913 46.5482C344.001 46.5381 344.09 46.5614 344.162 46.6134L344.83 47.205C344.882 47.2532 344.918 47.3158 344.933 47.3846C344.949 47.4534 344.945 47.5254 344.92 47.5915C344.895 47.6575 344.851 47.7147 344.793 47.7556C344.736 47.7966 344.668 47.8195 344.597 47.8215V47.8269Z" fill="white"/>
<path d="M325.287 101.566H275.394C274.426 101.566 273.499 101.181 272.815 100.495C272.131 99.8094 271.747 98.8794 271.747 97.9096V65.3372C271.747 64.4027 272.104 63.5038 272.744 62.8249C273.385 62.146 274.26 61.7385 275.191 61.6862L327.009 58.7907C327.521 58.7621 328.034 58.8421 328.513 59.0253C328.992 59.2086 329.427 59.4909 329.79 59.8541C330.153 60.2172 330.435 60.653 330.619 61.1329C330.802 61.6128 330.883 62.1262 330.855 62.6395L328.929 98.1074C328.878 99.0415 328.473 99.9207 327.795 100.564C327.118 101.207 326.22 101.566 325.287 101.566Z" fill="url(#paint10_linear_25_192)"/>
<path d="M301.505 81.9122L328.78 59.1382C328.226 58.8741 327.614 58.7545 327.002 58.7908L275.184 61.6863C274.325 61.7333 273.511 62.0837 272.886 62.6752L293.305 81.7073C295.521 83.7742 299.166 83.8651 301.505 81.9122Z" fill="url(#paint11_linear_25_192)"/>
<path opacity="0.74" d="M297.714 80.7825C296.317 80.7807 294.969 80.2668 293.923 79.3374L286.233 72.5218C286.18 72.4743 286.136 72.4167 286.104 72.3522C286.073 72.2878 286.055 72.2178 286.05 72.1462C286.046 72.0747 286.056 72.0029 286.079 71.9352C286.102 71.8674 286.139 71.8048 286.186 71.7511C286.233 71.6974 286.291 71.6536 286.355 71.6222C286.419 71.5907 286.489 71.5723 286.561 71.5679C286.632 71.5635 286.703 71.5733 286.771 71.5966C286.839 71.62 286.901 71.6564 286.955 71.7039L294.645 78.5106C295.432 79.2117 296.434 79.6225 297.485 79.675C298.536 79.7275 299.574 79.4186 300.426 78.7993L304.411 75.9287C304.469 75.8868 304.535 75.8569 304.605 75.8406C304.675 75.8242 304.748 75.8219 304.818 75.8336C304.889 75.8454 304.957 75.871 305.018 75.909C305.079 75.947 305.132 75.9967 305.174 76.0552C305.215 76.1137 305.245 76.1799 305.262 76.25C305.278 76.32 305.28 76.3926 305.268 76.4636C305.257 76.5346 305.231 76.6026 305.193 76.6637C305.155 76.7247 305.106 76.7777 305.047 76.8196L301.072 79.6956C300.094 80.4025 298.92 80.7828 297.714 80.7825Z" fill="white"/>
<path opacity="0.74" d="M283.733 70.1341C283.601 70.1338 283.475 70.0849 283.377 69.9969L282.343 69.081C282.234 68.9853 282.168 68.8503 282.159 68.7058C282.15 68.5613 282.198 68.419 282.294 68.3103C282.389 68.2016 282.524 68.1354 282.668 68.1262C282.812 68.117 282.954 68.1656 283.062 68.2613L284.099 69.1772C284.181 69.2504 284.24 69.347 284.267 69.4543C284.293 69.5615 284.287 69.6744 284.249 69.778C284.21 69.8816 284.141 69.9711 284.051 70.0346C283.961 70.0982 283.853 70.1329 283.743 70.1341H283.733Z" fill="white"/>
<path d="M87.357 47.3494H51.6656C51.3227 47.3496 50.9832 47.2821 50.6663 47.1508C50.3495 47.0195 50.0615 46.8269 49.8189 46.584C49.5763 46.3411 49.3838 46.0526 49.2524 45.7351C49.121 45.4177 49.0532 45.0773 49.053 44.7336V21.4322C49.0533 20.7637 49.309 20.1206 49.7674 19.6352C50.2258 19.1497 50.8523 18.8587 51.5181 18.8218L88.5886 16.7495C88.955 16.7289 89.3216 16.786 89.6645 16.9171C90.0073 17.0482 90.3188 17.2503 90.5784 17.5103C90.8381 17.7703 91.0401 18.0823 91.1713 18.4258C91.3025 18.7694 91.3599 19.1369 91.3399 19.5042L89.9625 44.8744C89.9265 45.5428 89.6364 46.172 89.1517 46.6324C88.667 47.0928 88.0247 47.3494 87.357 47.3494Z" fill="url(#paint12_linear_25_192)"/>
<path d="M70.3449 33.2887L89.8559 16.999C89.461 16.8106 89.0253 16.7249 88.5887 16.7495L51.5217 18.8218C50.9067 18.8564 50.324 19.109 49.8777 19.5345L64.4798 33.1426C66.0652 34.6216 68.6724 34.6857 70.3449 33.2887Z" fill="url(#paint13_linear_25_192)"/>
<path opacity="0.74" d="M67.6326 32.4815C66.6331 32.4812 65.6686 32.1127 64.9223 31.4463L59.4127 26.5782C59.342 26.5077 59.301 26.4127 59.2978 26.3128C59.2947 26.2129 59.3297 26.1156 59.3957 26.0407C59.4618 25.9659 59.5539 25.9191 59.6531 25.9101C59.7524 25.901 59.8514 25.9303 59.9299 25.992L65.4306 30.8618C65.9934 31.3633 66.7101 31.6572 67.4622 31.6948C68.2142 31.7324 68.9565 31.5114 69.5663 31.0685L72.4099 29.014C72.4939 28.9535 72.5983 28.9289 72.7003 28.9456C72.8023 28.9623 72.8935 29.019 72.9538 29.1031C73.0141 29.1872 73.0387 29.2919 73.022 29.3942C73.0053 29.4964 72.9488 29.5879 72.8649 29.6484L70.0213 31.7028C69.3263 32.2073 68.4906 32.4797 67.6326 32.4815Z" fill="white"/>
<path opacity="0.74" d="M57.6318 24.8641C57.5368 24.8647 57.4449 24.8298 57.3741 24.7661L56.633 24.1104C56.5946 24.0764 56.5633 24.0353 56.5407 23.9892C56.5182 23.9431 56.505 23.893 56.5017 23.8418C56.4985 23.7906 56.5054 23.7393 56.522 23.6907C56.5386 23.6422 56.5645 23.5974 56.5983 23.5589C56.6322 23.5204 56.6733 23.489 56.7192 23.4664C56.7652 23.4438 56.8151 23.4305 56.8662 23.4273C56.9173 23.4241 56.9685 23.431 57.0169 23.4476C57.0653 23.4642 57.11 23.4902 57.1484 23.5241L57.8895 24.1799C57.9484 24.2326 57.9899 24.302 58.0087 24.3789C58.0275 24.4557 58.0226 24.5365 57.9947 24.6106C57.9668 24.6846 57.9172 24.7485 57.8525 24.7937C57.7877 24.839 57.7108 24.8635 57.6318 24.8641Z" fill="white"/>
<path d="M90.2432 122.034H40.3442C39.377 122.034 38.4494 121.649 37.7654 120.963C37.0815 120.278 36.6973 119.348 36.6973 118.378V85.8055C36.6972 84.8709 37.0541 83.9717 37.6947 83.2927C38.3352 82.6137 39.2109 82.2064 40.1416 82.1545L91.9601 79.2589C92.4721 79.2304 92.9844 79.3104 93.4635 79.4937C93.9425 79.6771 94.3777 79.9597 94.7404 80.323C95.1032 80.6864 95.3855 81.1224 95.5688 81.6025C95.7521 82.0827 95.8324 82.5962 95.8044 83.1095L93.8849 118.577C93.834 119.511 93.4281 120.39 92.7507 121.033C92.0734 121.676 91.176 122.034 90.2432 122.034Z" fill="url(#paint14_linear_25_192)"/>
<path d="M66.4705 102.38L93.7446 79.6082C93.1918 79.3406 92.5803 79.218 91.9674 79.2519L40.1471 82.1545C39.2908 82.2035 38.4794 82.5544 37.8562 83.1452L58.2612 102.177C60.4775 104.239 64.1227 104.333 66.4705 102.38Z" fill="url(#paint15_linear_25_192)"/>
<path opacity="0.74" d="M62.6705 101.252C61.2729 101.251 59.9242 100.736 58.8796 99.8056L51.1857 92.9989C51.1288 92.9523 51.0819 92.8948 51.0477 92.8296C51.0136 92.7644 50.9929 92.693 50.9869 92.6197C50.9809 92.5463 50.9898 92.4725 51.0129 92.4026C51.0361 92.3328 51.0731 92.2683 51.1217 92.2131C51.1702 92.1579 51.2294 92.1131 51.2957 92.0814C51.362 92.0497 51.4339 92.0317 51.5073 92.0286C51.5806 92.0254 51.6539 92.0371 51.7226 92.063C51.7913 92.0889 51.8542 92.1284 51.9073 92.1792L59.5976 98.9859C60.3842 99.6873 61.386 100.098 62.4374 100.151C63.4887 100.204 64.5265 99.8954 65.3791 99.2764L69.3673 96.3987C69.4257 96.3568 69.4917 96.3268 69.5616 96.3105C69.6315 96.2942 69.7039 96.2919 69.7747 96.3036C69.8455 96.3154 69.9133 96.341 69.9742 96.379C70.0351 96.417 70.088 96.4667 70.1298 96.5252C70.1716 96.5837 70.2014 96.6499 70.2177 96.7199C70.234 96.79 70.2363 96.8626 70.2246 96.9336C70.2129 97.0046 70.1873 97.0726 70.1494 97.1336C70.1115 97.1947 70.0619 97.2477 70.0036 97.2896L66.0189 100.162C65.0447 100.869 63.8732 101.251 62.6705 101.252Z" fill="white"/>
<path opacity="0.74" d="M48.6975 90.6022C48.5666 90.6013 48.4404 90.5532 48.342 90.4668L47.3058 89.5491C47.2523 89.5016 47.2086 89.444 47.1772 89.3796C47.1459 89.3151 47.1275 89.2451 47.1231 89.1736C47.1187 89.102 47.1284 89.0303 47.1517 88.9625C47.175 88.8947 47.2114 88.8322 47.2587 88.7785C47.3061 88.7248 47.3636 88.681 47.4279 88.6495C47.4921 88.6181 47.5619 88.5996 47.6333 88.5953C47.7047 88.5909 47.7762 88.6006 47.8439 88.624C47.9115 88.6473 47.9739 88.6837 48.0274 88.7312L49.0636 89.6471C49.1465 89.7201 49.2053 89.8166 49.2323 89.9238C49.2592 90.031 49.253 90.144 49.2144 90.2476C49.1758 90.3512 49.1068 90.4406 49.0163 90.5039C48.9259 90.5673 48.8184 90.6015 48.7081 90.6022H48.6975Z" fill="white"/>
<path d="M53.5407 78.6798H3.64699C3.16746 78.6798 2.69264 78.585 2.24971 78.4008C1.80677 78.2166 1.40441 77.9466 1.06567 77.6063C0.726919 77.2661 0.458433 76.8621 0.275573 76.4177C0.0927135 75.9733 -0.000927822 75.497 6.92968e-06 75.0163V42.451C0.000359509 41.5165 0.35741 40.6176 0.997901 39.9387C1.63839 39.2597 2.51375 38.8523 3.44438 38.8L55.2628 35.9044C55.7749 35.8759 56.2873 35.9559 56.7664 36.1392C57.2456 36.3226 57.6808 36.6051 58.0437 36.9685C58.4067 37.3318 58.6891 37.7678 58.8726 38.2479C59.0561 38.7281 59.1367 39.2416 59.1089 39.755L57.1823 75.2141C57.1336 76.1495 56.7287 77.0304 56.0511 77.6753C55.3735 78.3201 54.4749 78.6797 53.5407 78.6798Z" fill="url(#paint16_linear_25_192)"/>
<path d="M29.7587 59.0259L57.0329 36.2537C56.4802 35.9857 55.8686 35.8631 55.2556 35.8974L3.44427 38.8C2.58561 38.8478 1.77154 39.1988 1.14624 39.7907L21.5583 58.8228C23.7746 60.888 27.4198 60.9788 29.7587 59.0259Z" fill="url(#paint17_linear_25_192)"/>
<path opacity="0.74" d="M25.9679 57.898C24.5704 57.8965 23.2218 57.3817 22.177 56.4512L14.4867 49.6444C14.3846 49.5468 14.3242 49.4134 14.3181 49.2721C14.3121 49.1308 14.3608 48.9926 14.4542 48.8866C14.5475 48.7805 14.6782 48.7149 14.8188 48.7034C14.9594 48.6918 15.099 48.7354 15.2083 48.8248L22.8986 55.6315C23.6851 56.3329 24.687 56.744 25.7383 56.7968C26.7897 56.8496 27.8275 56.541 28.6801 55.9219L32.6647 53.0496C32.7826 52.965 32.9291 52.9308 33.0721 52.9545C33.2151 52.9783 33.3428 53.058 33.4272 53.1761C33.5116 53.2942 33.5457 53.4412 33.522 53.5845C33.4984 53.7279 33.4189 53.8559 33.301 53.9405L29.3252 56.8093C28.3484 57.5176 27.1735 57.8986 25.9679 57.898Z" fill="white"/>
<path opacity="0.74" d="M11.9859 47.2478C11.8551 47.2469 11.7289 47.1988 11.6305 47.1124L10.5961 46.1947C10.5019 46.0966 10.4477 45.9666 10.4443 45.8304C10.4408 45.6942 10.4884 45.5616 10.5775 45.4588C10.6667 45.356 10.791 45.2904 10.9261 45.2749C11.0611 45.2594 11.197 45.2951 11.307 45.3751L12.3432 46.2927C12.4261 46.3657 12.4849 46.4622 12.5118 46.5694C12.5388 46.6766 12.5326 46.7896 12.494 46.8932C12.4554 46.9968 12.3864 47.0862 12.2959 47.1495C12.2055 47.2129 12.098 47.2471 11.9877 47.2478H11.9859Z" fill="white"/>
<path d="M388.095 109.283H347.123C346.329 109.283 345.567 108.967 345.005 108.404C344.444 107.841 344.128 107.077 344.128 106.281V79.5333C344.128 78.7659 344.422 78.0276 344.948 77.4702C345.474 76.9128 346.193 76.5786 346.958 76.5362L389.509 74.1575C389.93 74.134 390.35 74.1997 390.743 74.3503C391.137 74.5008 391.494 74.7328 391.792 75.031C392.09 75.3293 392.322 75.6872 392.472 76.0813C392.623 76.4755 392.689 76.897 392.666 77.3185L391.086 106.445C391.044 107.212 390.71 107.933 390.154 108.461C389.597 108.989 388.861 109.283 388.095 109.283Z" fill="url(#paint18_linear_25_192)"/>
<path d="M368.566 93.145L390.96 74.4354C390.507 74.2193 390.008 74.1206 389.508 74.1485L346.956 76.5273C346.251 76.5657 345.582 76.8536 345.068 77.3399L361.83 92.9686C363.652 94.6738 366.653 94.7486 368.566 93.145Z" fill="url(#paint19_linear_25_192)"/>
<path opacity="0.74" d="M365.452 92.2166C364.305 92.2155 363.198 91.7933 362.34 91.0299L356.023 85.4402C355.934 85.3613 355.88 85.2501 355.873 85.1312C355.866 85.0122 355.906 84.8952 355.984 84.8059C356.063 84.7166 356.174 84.6623 356.293 84.6549C356.411 84.6476 356.528 84.6878 356.617 84.7667L362.932 90.3564C363.577 90.9329 364.4 91.2709 365.263 91.3143C366.127 91.3577 366.979 91.104 367.679 90.5951L370.951 88.236C371.048 88.1665 371.168 88.1384 371.285 88.1577C371.402 88.1771 371.507 88.2424 371.576 88.3393C371.646 88.4362 371.674 88.5567 371.655 88.6743C371.635 88.792 371.57 88.8971 371.473 88.9665L368.201 91.3239C367.401 91.9039 366.439 92.2163 365.452 92.2166Z" fill="white"/>
<path opacity="0.74" d="M353.971 83.4731C353.862 83.4729 353.756 83.433 353.674 83.3608L352.825 82.6071C352.744 82.5263 352.697 82.4177 352.694 82.3036C352.69 82.1894 352.73 82.0782 352.806 81.9926C352.881 81.907 352.986 81.8534 353.1 81.8428C353.213 81.8321 353.326 81.8652 353.416 81.9353L354.268 82.6873C354.336 82.7476 354.384 82.8274 354.406 82.916C354.428 83.0046 354.422 83.0977 354.39 83.1831C354.358 83.2684 354.301 83.3419 354.226 83.3937C354.151 83.4455 354.062 83.4732 353.971 83.4731Z" fill="white"/>
<path d="M197.342 22.8737L110.714 94.6827C112.456 95.5251 114.382 95.9125 116.313 95.8088L280.443 87.2327C283.162 87.0945 285.744 85.9933 287.73 84.1252L223.309 23.6114C216.315 17.0435 204.771 16.7156 197.342 22.8737Z" fill="url(#paint20_linear_25_192)"/>
<path d="M277.139 217.28H119.138C116.074 217.28 113.136 216.06 110.97 213.888C108.803 211.716 107.586 208.77 107.586 205.698V102.551C107.586 99.5919 108.717 96.7448 110.745 94.5946C112.773 92.4444 115.546 91.1542 118.493 90.9889L282.588 81.8195C284.209 81.7292 285.831 81.9825 287.348 82.5631C288.865 83.1436 290.243 84.0382 291.392 85.1886C292.541 86.3389 293.435 87.7192 294.016 89.2394C294.597 90.7595 294.852 92.3854 294.764 94.011L288.668 206.329C288.507 209.286 287.222 212.069 285.078 214.106C282.934 216.143 280.093 217.279 277.139 217.28Z" fill="#FD7642"/>
<path d="M201.828 155.038L288.204 82.9242C286.459 82.088 284.531 81.708 282.601 81.8194L118.495 90.9889C115.777 91.1386 113.2 92.249 111.221 94.1232L175.859 154.395C182.883 160.938 194.421 161.223 201.828 155.038Z" fill="url(#paint21_linear_25_192)"/>
<path d="M264.183 173.981H134.085V49.6693C134.085 44.9118 138.497 40.981 144.145 40.7066L252.89 35.4358C259.016 35.1401 264.177 39.2383 264.177 44.3986L264.183 173.981Z" fill="#91B3FA"/>
<path d="M259.732 173.981H138.541V58.1778C138.541 53.7445 142.652 50.0828 147.913 49.828L249.218 44.9172C254.925 44.641 259.734 48.4595 259.734 53.267L259.732 173.981Z" fill="#F3F7FF"/>
<path d="M163.95 151.681L231.774 157.998C231.902 158.008 232.031 157.982 232.151 157.922C232.272 157.862 232.383 157.769 232.476 157.648C232.57 157.527 232.645 157.381 232.696 157.218C232.747 157.056 232.773 156.882 232.773 156.705V153.503C232.773 153.167 232.679 152.844 232.509 152.602C232.339 152.361 232.107 152.219 231.862 152.208L164.039 149.092C163.913 149.086 163.787 149.115 163.669 149.177C163.551 149.239 163.443 149.333 163.352 149.454C163.261 149.575 163.189 149.719 163.14 149.879C163.09 150.039 163.065 150.211 163.065 150.384C163.064 150.715 163.156 151.033 163.32 151.274C163.485 151.515 163.71 151.661 163.95 151.681Z" fill="#91B3FA"/>
<path d="M163.065 142.113V141.053C163.065 140.735 163.118 140.421 163.219 140.128C163.321 139.836 163.47 139.572 163.657 139.352C163.845 139.132 164.066 138.961 164.309 138.849C164.552 138.737 164.811 138.686 165.07 138.699L218.06 141.406C218.556 141.431 219.025 141.69 219.368 142.129C219.712 142.567 219.904 143.152 219.904 143.76C219.905 144.075 219.854 144.386 219.754 144.677C219.655 144.967 219.509 145.23 219.325 145.45C219.141 145.67 218.923 145.843 218.684 145.958C218.444 146.073 218.188 146.128 217.931 146.12L164.94 144.468C164.438 144.452 163.962 144.197 163.612 143.757C163.261 143.317 163.065 142.727 163.065 142.113Z" fill="#91B3FA"/>
<path d="M219.344 94.1703L160.252 96.8084C159.856 96.8261 159.48 97.0358 159.205 97.3932C158.93 97.7506 158.776 98.2279 158.776 98.7247L158.776 99.6937C158.776 99.9501 158.817 100.204 158.896 100.44C158.976 100.676 159.093 100.89 159.239 101.069C159.386 101.248 159.56 101.388 159.751 101.48C159.942 101.573 160.145 101.617 160.35 101.61L219.442 99.5078C219.84 99.4937 220.218 99.2857 220.496 98.9279C220.774 98.5701 220.929 98.0907 220.93 97.5915L220.93 96.0866C220.93 95.829 220.888 95.574 220.808 95.3369C220.727 95.0999 220.61 94.8855 220.462 94.7066C220.314 94.5278 220.138 94.3881 219.946 94.296C219.754 94.2038 219.549 94.1611 219.344 94.1703Z" fill="#91B3FA"/>
<path d="M230.677 108.523L230.677 110.945C230.677 111.611 230.515 112.249 230.227 112.72C229.938 113.19 229.547 113.455 229.14 113.455L160.313 113.455C159.905 113.455 159.514 113.19 159.226 112.719C158.937 112.249 158.775 111.611 158.775 110.945L158.775 110.334C158.775 109.675 158.933 109.044 159.215 108.574C159.498 108.105 159.882 107.835 160.285 107.824L229.112 106.013C229.316 106.007 229.519 106.067 229.709 106.191C229.899 106.314 230.072 106.498 230.218 106.732C230.363 106.965 230.479 107.244 230.558 107.552C230.637 107.859 230.677 108.189 230.677 108.523Z" fill="#91B3FA"/>
<path d="M227.976 119.429C228.196 119.429 228.414 119.482 228.614 119.585C228.815 119.687 228.994 119.837 229.139 120.023C229.284 120.21 229.393 120.43 229.457 120.668C229.521 120.905 229.54 121.156 229.511 121.402L229.232 123.776C229.183 124.199 228.999 124.587 228.714 124.868C228.429 125.148 228.063 125.302 227.684 125.298L160.324 125.298C160.084 125.298 159.848 125.236 159.633 125.115C159.419 124.994 159.232 124.819 159.088 124.603C158.943 124.387 158.845 124.136 158.802 123.87C158.758 123.604 158.769 123.33 158.835 123.07L159.437 120.695C159.529 120.33 159.725 120.009 159.993 119.781C160.262 119.552 160.589 119.429 160.926 119.429L227.976 119.429Z" fill="#91B3FA"/>
<path d="M158.775 75.2974V74.0585C158.775 73.769 158.815 73.4822 158.895 73.2149C158.974 72.9477 159.09 72.7055 159.237 72.5024C159.384 72.2994 159.558 72.1397 159.749 72.0327C159.94 71.9256 160.144 71.8734 160.35 71.8792L223.757 73.8929C224.16 73.9057 224.544 74.1404 224.826 74.5465C225.108 74.9527 225.266 75.4982 225.266 76.0662V77.1293C225.266 77.4185 225.225 77.7048 225.146 77.9715C225.066 78.2381 224.949 78.4797 224.803 78.6821C224.656 78.8845 224.482 79.0436 224.291 79.1502C224.1 79.2567 223.895 79.3085 223.69 79.3025L160.283 77.4625C159.881 77.4492 159.498 77.2155 159.217 76.8111C158.935 76.4067 158.777 75.8637 158.775 75.2974Z" fill="#91B3FA"/>
<path d="M158.775 62.6992C158.775 62.3389 158.825 61.9821 158.922 61.65C159.019 61.318 159.161 61.0173 159.339 60.7658C159.518 60.5143 159.73 60.317 159.962 60.1857C160.194 60.0543 160.442 59.9914 160.691 60.0009L215.928 61.8399C216.23 61.8482 216.527 61.9626 216.792 62.1733C217.057 62.384 217.283 62.6847 217.45 63.0494C217.616 63.4142 217.719 63.8321 217.75 64.2672C217.78 64.7023 217.737 65.1415 217.624 65.547L217.576 65.7193C217.434 66.2328 217.187 66.6713 216.868 66.9759C216.548 67.2805 216.172 67.4366 215.79 67.4234L160.601 65.41C160.111 65.3943 159.646 65.1013 159.304 64.5943C158.963 64.0873 158.773 63.4067 158.775 62.6992Z" fill="#91B3FA"/>
</g>
<defs>
<linearGradient id="paint0_linear_25_192" x1="25.2" y1="112.947" x2="386.372" y2="112.947" gradientUnits="userSpaceOnUse">
<stop stop-color="#DAE3FE"/>
<stop offset="1" stop-color="#E9EFFD"/>
</linearGradient>
<linearGradient id="paint1_linear_25_192" x1="325.579" y1="191.406" x2="376.283" y2="191.406" gradientUnits="userSpaceOnUse">
<stop stop-color="#DAE3FE"/>
<stop offset="1" stop-color="#E9EFFD"/>
</linearGradient>
<linearGradient id="paint2_linear_25_192" x1="49.8047" y1="174.175" x2="65.7665" y2="174.175" gradientUnits="userSpaceOnUse">
<stop stop-color="#DAE3FE"/>
<stop offset="1" stop-color="#E9EFFD"/>
</linearGradient>
<linearGradient id="paint3_linear_25_192" x1="10.2159" y1="214.663" x2="77.1572" y2="214.663" gradientUnits="userSpaceOnUse">
<stop stop-color="#DAE3FE"/>
<stop offset="1" stop-color="#E9EFFD"/>
</linearGradient>
<linearGradient id="paint4_linear_25_192" x1="106.433" y1="69.7367" x2="96.2084" y2="110.529" gradientUnits="userSpaceOnUse">
<stop stop-color="#FE7062"/>
<stop offset="1" stop-color="#FF928E"/>
</linearGradient>
<linearGradient id="paint5_linear_25_192" x1="111.144" y1="16.1222" x2="110.072" y2="37.1479" gradientUnits="userSpaceOnUse">
<stop stop-color="#FE7062"/>
<stop offset="1" stop-color="#FF928E"/>
</linearGradient>
<linearGradient id="paint6_linear_25_192" x1="325.422" y1="41.2803" x2="312.101" y2="93.9163" gradientUnits="userSpaceOnUse">
<stop stop-color="#FE7062"/>
<stop offset="1" stop-color="#FF928E"/>
</linearGradient>
<linearGradient id="paint7_linear_25_192" x1="376.839" y1="-68.3201" x2="355.429" y2="-32.5497" gradientUnits="userSpaceOnUse">
<stop stop-color="#FE7062"/>
<stop offset="1" stop-color="#FF928E"/>
</linearGradient>
<linearGradient id="paint8_linear_25_192" x1="355.085" y1="56.1678" x2="345.893" y2="92.4852" gradientUnits="userSpaceOnUse">
<stop stop-color="#FE7062"/>
<stop offset="1" stop-color="#FF928E"/>
</linearGradient>
<linearGradient id="paint9_linear_25_192" x1="357.132" y1="17.3909" x2="356.061" y2="34.8528" gradientUnits="userSpaceOnUse">
<stop stop-color="#FE7062"/>
<stop offset="1" stop-color="#FF928E"/>
</linearGradient>
<linearGradient id="paint10_linear_25_192" x1="300.364" y1="94.2283" x2="298.935" y2="140.2" gradientUnits="userSpaceOnUse">
<stop stop-color="#FE7062"/>
<stop offset="1" stop-color="#FF928E"/>
</linearGradient>
<linearGradient id="paint11_linear_25_192" x1="355.465" y1="-34.9387" x2="327.629" y2="13.6498" gradientUnits="userSpaceOnUse">
<stop stop-color="#FE7062"/>
<stop offset="1" stop-color="#FF928E"/>
</linearGradient>
<linearGradient id="paint12_linear_25_192" x1="69.9752" y1="24.6805" x2="68.546" y2="51.7644" gradientUnits="userSpaceOnUse">
<stop stop-color="#FE7062"/>
<stop offset="1" stop-color="#FF928E"/>
</linearGradient>
<linearGradient id="paint13_linear_25_192" x1="110.543" y1="-54.4341" x2="85.9191" y2="-10.6508" gradientUnits="userSpaceOnUse">
<stop stop-color="#FE7062"/>
<stop offset="1" stop-color="#FF928E"/>
</linearGradient>
<linearGradient id="paint14_linear_25_192" x1="66.1415" y1="91.9939" x2="66.8561" y2="144.381" gradientUnits="userSpaceOnUse">
<stop stop-color="#FE7062"/>
<stop offset="1" stop-color="#FF928E"/>
</linearGradient>
<linearGradient id="paint15_linear_25_192" x1="91.4519" y1="16.2043" x2="75.3833" y2="56.806" gradientUnits="userSpaceOnUse">
<stop stop-color="#FE7062"/>
<stop offset="1" stop-color="#FF928E"/>
</linearGradient>
<linearGradient id="paint16_linear_25_192" x1="29.1332" y1="53.7266" x2="27.7041" y2="96.491" gradientUnits="userSpaceOnUse">
<stop stop-color="#FE7062"/>
<stop offset="1" stop-color="#FF928E"/>
</linearGradient>
<linearGradient id="paint17_linear_25_192" x1="49.89" y1="-29.0069" x2="34.8889" y2="19.085" gradientUnits="userSpaceOnUse">
<stop stop-color="#FE7062"/>
<stop offset="1" stop-color="#FF928E"/>
</linearGradient>
<linearGradient id="paint18_linear_25_192" x1="369.888" y1="83.8543" x2="358.194" y2="130.06" gradientUnits="userSpaceOnUse">
<stop stop-color="#FE7062"/>
<stop offset="1" stop-color="#FF928E"/>
</linearGradient>
<linearGradient id="paint19_linear_25_192" x1="391.379" y1="-26.8063" x2="384.414" y2="3.6593" gradientUnits="userSpaceOnUse">
<stop stop-color="#FE7062"/>
<stop offset="1" stop-color="#FF928E"/>
</linearGradient>
<linearGradient id="paint20_linear_25_192" x1="280.244" y1="-54.5143" x2="164.626" y2="149.789" gradientUnits="userSpaceOnUse">
<stop stop-color="#E1473D"/>
<stop offset="1" stop-color="#E9605A"/>
</linearGradient>
<linearGradient id="paint21_linear_25_192" x1="280.24" y1="-54.5161" x2="164.622" y2="149.787" gradientUnits="userSpaceOnUse">
<stop stop-color="#E1473D"/>
<stop offset="1" stop-color="#E9605A"/>
</linearGradient>
<clipPath id="clip0_25_192">
<rect width="399" height="251" fill="white"/>
</clipPath>
</defs>
</svg>
