<svg width="21" height="16" viewBox="0 0 21 16" fill="none" xmlns="http://www.w3.org/2000/svg">
<path d="M20.1765 1.92204C19.521 2.19225 18.8317 2.38041 18.1259 2.48186C18.4559 2.42769 18.9415 1.85884 19.1347 1.62859C19.4284 1.28128 19.6521 0.884795 19.7947 0.459281C19.7947 0.427678 19.8277 0.382531 19.7947 0.359957C19.7781 0.351264 19.7594 0.346708 19.7405 0.346708C19.7215 0.346708 19.7029 0.351264 19.6863 0.359957C18.9199 0.757441 18.1042 1.06081 17.2586 1.2629C17.2291 1.27152 17.1977 1.27229 17.1678 1.26513C17.1379 1.25798 17.1106 1.24316 17.0889 1.22226C17.023 1.1472 16.9522 1.07632 16.8767 1.01007C16.5318 0.714112 16.1405 0.47188 15.7171 0.292237C15.1455 0.0676658 14.5282 -0.029591 13.9116 0.00781131C13.3134 0.0439956 12.7293 0.197671 12.1957 0.459281C11.6703 0.735093 11.2085 1.10979 10.8381 1.56087C10.4484 2.02513 10.1672 2.56393 10.0131 3.14101C9.8861 3.68993 9.87169 4.25726 9.97069 4.81144C9.97069 4.90625 9.97069 4.9198 9.88584 4.90625C6.52475 4.43221 3.76705 3.28999 1.51375 0.838515C1.41476 0.730162 1.3629 0.730162 1.28277 0.838515C0.30225 2.26516 0.778366 4.5225 2.00401 5.63763C2.169 5.78662 2.3387 5.93109 2.51784 6.06653C1.95589 6.02832 1.40766 5.88247 0.905644 5.63763C0.811364 5.57894 0.75951 5.61054 0.754796 5.7189C0.741432 5.86911 0.741432 6.02015 0.754796 6.17037C0.853156 6.89028 1.14939 7.57225 1.61322 8.14655C2.07704 8.72086 2.6918 9.16688 3.39464 9.439C3.56598 9.50929 3.74451 9.56225 3.92733 9.59702C3.4071 9.69511 2.87354 9.71036 2.34813 9.64217C2.235 9.61959 2.19257 9.67828 2.235 9.78212C2.92796 11.588 4.43173 12.1388 5.5348 12.4458C5.68565 12.4684 5.8365 12.4684 6.00621 12.5045C6.00621 12.5045 6.00621 12.5045 5.97792 12.5316C5.65265 13.1004 4.33745 13.4842 3.73405 13.6828C2.6327 14.0617 1.45846 14.2065 0.292822 14.1072C0.108976 14.0801 0.0665496 14.0846 0.0194094 14.1072C-0.0277307 14.1298 0.0194094 14.1794 0.0712636 14.2246C0.306964 14.3736 0.542665 14.5045 0.787794 14.6309C1.51754 15.0121 2.28904 15.3149 3.08823 15.5338C7.22714 16.6264 11.8846 15.8228 14.9911 12.8657C17.433 10.5451 18.2909 7.34419 18.2909 4.13875C18.2909 4.01686 18.4465 3.94462 18.5361 3.88142C19.1538 3.42042 19.6985 2.87599 20.153 2.26516C20.2317 2.1741 20.272 2.05817 20.2661 1.9401C20.2661 1.87238 20.2661 1.88592 20.1765 1.92204Z" fill="#09005D"/>
</svg>
