<svg width="52" height="52" fill="none" xmlns="http://www.w3.org/2000/svg"><rect width="52" height="52" rx="16" fill="#F3F7FF"/><path d="M38.02 25.12c0 6.627-5.376 12-12.009 12s-11.51 2.627-11.51-4c0-3.318-1.551-8.826.501-13 2.048-4.165 7.697-7 11.01-7 6.632 0 12.009 5.372 12.009 12z" fill="#5BC440"/><path d="m12 40 2.01-7.463a13.781 13.781 0 0 1-1.45-9.555 13.817 13.817 0 0 1 5.184-8.167 13.9 13.9 0 0 1 18.13 1.17 13.788 13.788 0 0 1 1.409 18.054 13.872 13.872 0 0 1-8.127 5.272 13.909 13.909 0 0 1-9.604-1.323L12 40zm7.916-4.804.467.276a11.24 11.24 0 0 0 13.575-1.646 11.139 11.139 0 0 0 1.874-13.5 11.197 11.197 0 0 0-5.41-4.77 11.244 11.244 0 0 0-7.206-.49 11.21 11.21 0 0 0-6.01 3.994 11.146 11.146 0 0 0-2.317 6.819 11.017 11.017 0 0 0 1.639 5.79l.293.481-1.124 4.166 4.219-1.12z" fill="#fff"/><path fill-rule="evenodd" clip-rule="evenodd" d="M31.25 27.795a2.314 2.314 0 0 0-1.978-.45c-.515.213-.847 1.018-1.18 1.42a.491.491 0 0 1-.633.142 8.96 8.96 0 0 1-4.48-3.826.535.535 0 0 1 .07-.741 3.09 3.09 0 0 0 .793-1.318 2.864 2.864 0 0 0-.365-1.578 3.692 3.692 0 0 0-1.147-1.727 1.588 1.588 0 0 0-1.702.26 3.488 3.488 0 0 0-1.211 2.761c0 .293.038.584.11.868.184.681.467 1.332.84 1.933.268.46.562.904.878 1.333a13.478 13.478 0 0 0 3.808 3.518c.745.466 1.542.845 2.374 1.128.865.391 1.82.541 2.763.434a3.322 3.322 0 0 0 2.501-1.854c.137-.295.178-.626.119-.946-.143-.655-1.021-1.042-1.56-1.357z" fill="#fff"/></svg>